<?xml version="1.0" standalone="no"?>
<!DOCTYPE svg PUBLIC "-//W3C//DTD SVG 1.1//EN" "http://www.w3.org/Graphics/SVG/1.1/DTD/svg11.dtd" >
<svg xmlns="http://www.w3.org/2000/svg" xmlns:xlink="http://www.w3.org/1999/xlink" version="1.1">
<metadata></metadata>
<defs>
<font id="baskervillenormal" horiz-adv-x="1024" >
<font-face units-per-em="2048" ascent="1638" descent="-410" />
<missing-glyph horiz-adv-x="569" />
<glyph horiz-adv-x="0" />
<glyph unicode="&#xd;" horiz-adv-x="681" />
<glyph unicode=" "  horiz-adv-x="569" />
<glyph unicode="&#x09;" horiz-adv-x="569" />
<glyph unicode="&#xa0;" horiz-adv-x="569" />
<glyph unicode="!" horiz-adv-x="505" d="M137 1118q0 37 4 76t14.5 90t35 84t61.5 33t62.5 -31t36.5 -81t15.5 -90t4.5 -81q0 -104 -38 -325t-42 -330h-74q-4 106 -42 327.5t-38 327.5zM139 88q0 47 34 81t81 34t80 -34t33 -81t-33 -81t-80 -34t-81 34t-34 81z" />
<glyph unicode="&#x22;" horiz-adv-x="727" d="M102 1366h187l-53 -549h-82zM438 1366h187l-54 -549h-82z" />
<glyph unicode="#" horiz-adv-x="1206" d="M90 469l14 80h244l55 295h-237l14 80h244l90 442h88l-90 -442h297l92 442h88l-90 -442h223l-12 -80h-231l-56 -295h226l-15 -80h-231l-96 -469h-89l97 469h-299l-97 -469h-88l97 469h-238zM436 549h299l56 295h-299z" />
<glyph unicode="$" horiz-adv-x="956" d="M43 289q0 35 25.5 59.5t58.5 24.5q39 0 69.5 -42t52 -94.5t77 -101.5t135.5 -61v542q-27 14 -102.5 50t-107.5 56.5t-79 61.5t-66.5 92.5t-19.5 120.5q0 172 100.5 270.5t274.5 108.5v205h76v-205q184 -25 282 -131q72 -80 72 -147q0 -37 -20.5 -61.5t-55.5 -24.5 q-33 0 -51.5 26.5t-28.5 65.5t-26.5 80t-59 77t-112.5 48v-518q2 0 8 -4.5t10 -4.5q186 -92 248 -143q121 -102 121 -258q0 -152 -117 -266.5t-270 -114.5v-221h-76v221q-193 10 -326 139q-92 86 -92 150zM213 1094q0 -51 20.5 -94.5t62.5 -77t76 -54t89 -47.5v488 q-98 -4 -173 -61.5t-75 -153.5zM537 74q98 10 173.5 82.5t75.5 169.5q0 41 -13 74.5t-46 62.5t-53.5 43t-72.5 40.5t-64 35.5v-508z" />
<glyph unicode="%" horiz-adv-x="1112" d="M29 1016q0 129 58 237.5t177 108.5q117 0 176.5 -109.5t59.5 -236.5t-59.5 -236.5t-176.5 -109.5q-82 0 -137 59t-76.5 134t-21.5 153zM135 1018q0 -39 4 -81t15.5 -100.5t40 -94t69.5 -35.5t69.5 35.5t39 94t14.5 99.5t4 82t-4 82t-14.5 99t-39 94t-69.5 36t-69.5 -36 t-40 -94t-15.5 -100t-4 -81zM143 0l756 1366h72l-756 -1366h-72zM614 336q0 127 59.5 236.5t176.5 109.5q82 0 137 -59.5t76.5 -134t21.5 -152.5q0 -129 -58 -237.5t-177 -108.5q-117 0 -176.5 109.5t-59.5 236.5zM723 338q0 -41 4 -82t14.5 -99.5t39 -94t69.5 -35.5 t69.5 35.5t39 94t14.5 99.5t4 82t-4 82t-14.5 99.5t-39 94t-69.5 35.5t-69.5 -35.5t-39 -94t-14.5 -99.5t-4 -82z" />
<glyph unicode="&#x26;" horiz-adv-x="1310" d="M10 326q0 258 314 430q-45 72 -61.5 99.5t-39 89t-22.5 114.5q0 106 89 169.5t199 63.5q100 0 187.5 -54t87.5 -148q0 -53 -18.5 -97.5t-63.5 -85.5t-71.5 -59.5t-90.5 -56.5q-14 -10 -22 -15q39 -53 139 -197.5t158 -222.5q125 145 125 293q0 106 -156 107v53h424v-53 q-94 -23 -150.5 -98.5t-105.5 -189.5t-96 -169q156 -207 278 -207q98 0 166 90l41 -53q-37 -66 -107.5 -109t-144.5 -43q-188 0 -338 187q-88 -94 -170 -140.5t-194 -46.5q-137 0 -243 105.5t-114 243.5zM176 422q0 -115 81 -211t194 -107q150 0 243 107q-45 59 -336 491 q-88 -66 -135 -128t-47 -152zM336 1081q0 -45 20.5 -87t55.5 -90t49 -75q180 111 180 236q0 63 -46 108.5t-110 45.5q-59 0 -104 -39t-45 -99z" />
<glyph unicode="'" horiz-adv-x="413" d="M111 1366h192l-53 -549h-88z" />
<glyph unicode="(" horiz-adv-x="604" d="M162 401q0 254 70.5 507t203.5 458h146q-287 -418 -287 -964.5t287 -964.5h-146q-133 205 -203.5 457.5t-70.5 506.5z" />
<glyph unicode=")" horiz-adv-x="604" d="M23 -563q287 418 286.5 964.5t-286.5 964.5h145q133 -205 203.5 -458t70.5 -507t-70.5 -506.5t-203.5 -457.5h-145z" />
<glyph unicode="*" horiz-adv-x="956" d="M123 1110q0 39 19.5 70.5t56.5 31.5q51 0 131 -59t116 -70q0 43 -24.5 121t-24.5 121q0 39 23.5 61.5t58.5 22.5q37 0 61.5 -23.5t24.5 -60.5q0 -43 -24.5 -121t-24.5 -121q33 10 113 69.5t133 59.5q33 0 55.5 -29.5t22.5 -64.5q0 -37 -30 -57.5t-56.5 -23.5t-69.5 -5 h-51q-66 -4 -94 -16q18 -29 68 -62.5t89 -68.5t43 -78q0 -37 -27.5 -64.5t-64.5 -27.5q-43 0 -72.5 50t-53 119.5t-40.5 90.5q-18 -20 -39.5 -90t-51.5 -120t-75 -50q-35 0 -63.5 26.5t-28.5 59.5q0 39 39 76.5t92.5 75.5t69.5 65q-29 10 -94 14h-51q-43 2 -68 5t-55.5 20.5 t-32.5 52.5z" />
<glyph unicode="+" d="M41 655v103h418v397h104v-397h420v-103h-420v-397h-104v397h-418z" />
<glyph unicode="," horiz-adv-x="485" d="M92 106q0 47 34 81t81 34q80 0 129 -69.5t49 -153.5q0 -119 -77.5 -218t-192.5 -134v35q162 117 161 243q0 37 -16 76q-27 -6 -59 -6q-45 0 -77 33.5t-32 78.5z" />
<glyph unicode="-" horiz-adv-x="436" d="M0 393v101h436v-101h-436z" />
<glyph unicode="." horiz-adv-x="485" d="M129 88q0 47 34 81t81 34t79.5 -34t32.5 -81t-32.5 -81t-79.5 -34t-81 34t-34 81z" />
<glyph unicode="/" horiz-adv-x="471" d="M-158 -563l682 1929h101l-682 -1929h-101z" />
<glyph unicode="0" horiz-adv-x="956" d="M41 670q0 109 22.5 220t69.5 222t137 180.5t207 69.5q119 0 209 -69.5t137 -179t69.5 -222.5t22.5 -221.5t-22.5 -221t-69.5 -222t-137 -179.5t-209 -70q-207 0 -332 228q-104 180 -104 465zM223 673.5q0 -61.5 3 -126t18.5 -163.5t41 -173t74.5 -128t117 -54 q82 0 138.5 75.5t79 196.5t29.5 206t7 167t-7 167t-29.5 205.5t-79 196.5t-138.5 76q-68 0 -117 -54.5t-74.5 -128t-41 -173t-18.5 -164t-3 -126z" />
<glyph unicode="1" horiz-adv-x="956" d="M205 0v55q109 0 150.5 34t41.5 138v936h-170v60q86 4 141.5 24.5t104.5 55t82 49.5q2 2 4 2q8 0 8 -11v-1116q0 -98 43 -135t142 -37v-55h-547z" />
<glyph unicode="2" horiz-adv-x="956" d="M43 0l18 84q125 104 220.5 196.5t199 218.5t160.5 265t57 276q0 111 -71.5 194t-180 83t-184.5 -71.5t-76 -180.5q0 -61 34 -119.5t89 -79.5q-18 -51 -92 -51q-68 0 -102.5 65.5t-34.5 139.5q0 154 110.5 248t266.5 94q172 0 292.5 -108.5t120.5 -278.5 q0 -76 -23.5 -151.5t-53 -134t-92 -131.5t-102.5 -115t-124 -110.5t-117.5 -94t-119.5 -88.5h485q27 0 47.5 8t35.5 28.5t23.5 35t20.5 45t18 40.5h47l-77 -307h-795z" />
<glyph unicode="3" horiz-adv-x="956" d="M66 236q0 68 43.5 109.5t109.5 41.5q-27 -59 -26 -117q0 -96 75.5 -163.5t173.5 -67.5q129 0 198 93t69 228q0 72 -17.5 138.5t-64.5 121t-119 58.5q-29 0 -72 -30t-71.5 -30t-52 20.5t-25.5 49.5q0 59 127 60q55 0 102 -9q80 33 122 108t42 165q0 125 -61.5 218 t-176.5 93q-74 0 -127 -45t-53 -117q0 -80 62 -147q-25 -16 -68 -17q-49 2 -83 40t-34 87q0 113 104.5 175.5t223.5 62.5q147 0 263 -94t116 -240q0 -117 -64.5 -200t-179.5 -105q123 -25 207 -126t84 -226q0 -184 -138.5 -289t-328.5 -105q-135 0 -247.5 66t-112.5 193z " />
<glyph unicode="4" horiz-adv-x="956" d="M20 334l631 1005q16 16 19 17q12 0 12 -17v-931q51 0 73.5 2t50.5 11t44 29.5t35 59.5h51l-51 -176h-203v-144q0 -78 34 -106.5t111 -28.5v-55h-462v55q80 0 115.5 29t35.5 106v144h-496zM135 408h381v337v291z" />
<glyph unicode="5" horiz-adv-x="956" d="M41 219q0 43 22.5 78t63.5 37q41 0 59.5 -32t23.5 -77t15.5 -89t45 -75.5t100.5 -31.5q154 0 236.5 140t82.5 304q0 80 -18.5 146.5t-71.5 117.5t-135 51q-53 0 -106.5 -39.5t-53.5 -91.5q0 -18 -15.5 -32.5t-35.5 -14.5q-10 0 -18.5 9.5t-8.5 19.5v2l80 698 q205 -16 459 -16q55 0 98 43h54q-45 -59 -62.5 -79.5t-57.5 -58.5t-81 -51.5t-96 -13.5q-51 0 -145.5 4t-125.5 4l-43 -397q80 74 211 74q150 0 255.5 -111.5t105.5 -261.5q0 -213 -150.5 -355.5t-363.5 -142.5q-117 0 -220.5 66t-103.5 176z" />
<glyph unicode="6" horiz-adv-x="956" d="M57 551q0 141 35 279.5t103.5 260t187.5 196.5t268 75q78 0 146.5 -29.5t68.5 -97.5q0 -31 -19.5 -52.5t-49.5 -21.5q-39 0 -67 39t-60.5 79t-79.5 42q-109 0 -188.5 -101.5t-112.5 -219t-37 -226.5q94 100 262 100q172 0 278.5 -131t106.5 -305q0 -188 -110.5 -324.5 t-296.5 -136.5q-113 0 -200 50.5t-136.5 135.5t-74 183t-24.5 205zM238 471q0 -70 10 -137.5t34.5 -140t78 -117.5t126.5 -45q72 0 122 41t74 107.5t34 128.5t10 130q0 92 -17.5 174t-76 152t-150.5 70q-86 0 -144 -61.5t-79.5 -139.5t-21.5 -162z" />
<glyph unicode="7" horiz-adv-x="956" d="M78 979l57 387h47q0 -55 76 -55h621l-492 -1213q-14 -37 -25.5 -58.5t-37 -42t-58.5 -20.5q-88 0 -88 84q0 29 33 95l563 1007h-418q-88 0 -145 -48t-76 -136h-57z" />
<glyph unicode="8" horiz-adv-x="956" d="M39 365q0 111 67.5 199.5t174.5 137.5q-209 90 -209 306q0 156 127 255t286 99q166 0 295 -93t129 -255q0 -193 -209 -285q113 -43 179.5 -140t66.5 -218q0 -180 -140 -287t-329 -107q-174 0 -306 109t-132 279zM209 379q0 -137 71.5 -239.5t202.5 -102.5t209 96t78 232 q0 84 -50 146t-132 89l-199 66q-180 -96 -180 -287zM231 1049q0 -156 158 -211l203 -72q156 70 156 252q0 123 -71 210t-190 87q-113 0 -184.5 -77t-71.5 -189z" />
<glyph unicode="9" horiz-adv-x="956" d="M47 180q0 41 22.5 68.5t61.5 27.5q33 0 55.5 -37.5t34.5 -82.5t52 -83t104 -38q82 0 148.5 55t104.5 139t57.5 171t19.5 161q-92 -98 -248 -98q-172 0 -287 122t-115 294q0 186 120 334.5t302 148.5q113 0 200 -56.5t135 -147.5t72.5 -193.5t24.5 -206.5 q0 -133 -34.5 -266.5t-101 -250t-181.5 -190.5t-258 -74q-104 0 -196.5 53.5t-92.5 149.5zM238 911.5q0 -65.5 9 -129t32.5 -130t73.5 -107.5t122 -41q92 0 150.5 65.5t77 143.5t18.5 168q0 66 -9.5 133t-33 141t-74.5 121t-121 47q-72 0 -123 -41t-76.5 -108.5t-35.5 -132 t-10 -130z" />
<glyph unicode=":" horiz-adv-x="485" d="M129 88q0 47 34 81t81 34t79.5 -34t32.5 -81t-32.5 -81t-79.5 -34t-81 34t-34 81zM129 760q0 47 34 80.5t81 33.5t79.5 -33.5t32.5 -80.5t-32.5 -81t-79.5 -34t-81 34t-34 81z" />
<glyph unicode=";" horiz-adv-x="485" d="M92 106q0 47 34 81t81 34q80 0 129 -69.5t49 -153.5q0 -119 -77.5 -218t-192.5 -134v35q162 117 161 243q0 37 -16 76q-27 -6 -59 -6q-45 0 -77 33.5t-32 78.5zM125 760q0 47 34 79.5t81 32.5t79.5 -32.5t32.5 -79.5t-32.5 -81t-79.5 -34t-81 34t-34 81z" />
<glyph unicode="&#x3c;" d="M86 707v14l852 545v-88l-614 -398l614 -411v-234z" />
<glyph unicode="=" d="M41 510v98h942v-98h-942zM41 803v98h942v-98h-942z" />
<glyph unicode="&#x3e;" d="M86 135v88l614 398l-614 411v234l852 -574v-12z" />
<glyph unicode="?" horiz-adv-x="843" d="M174 1255q0 72 83 109t167 37q143 0 243.5 -105.5t100.5 -251.5q0 -113 -71.5 -210t-180.5 -97q-66 0 -115 35v-309h-69v418h39q53 -70 104 -70q49 0 82 50t42 101.5t9 98.5q0 106 -45 191t-141 85q-43 0 -70.5 -21.5t-38 -48t-29 -49t-44.5 -24.5q-27 0 -46.5 17.5 t-19.5 43.5zM254 88q0 47 34 81t81 34t79.5 -34t32.5 -81t-32.5 -81t-79.5 -34t-81 34t-34 81z" />
<glyph unicode="@" horiz-adv-x="1589" d="M119 647q0 328 231.5 539t560.5 211q242 0 413 -149.5t171 -387.5q0 -295 -188 -469q-111 -106 -230 -106q-70 0 -103.5 56t-33.5 130q-125 -193 -276 -192q-92 0 -142.5 78.5t-50.5 174.5q0 109 48 232t144.5 216t206.5 93q113 0 183 -108l16 84q59 4 115 12l-123 -486 q-23 -86 -23 -126q0 -96 68 -97q86 0 182 113q133 160 133 385q0 207 -149.5 342t-360.5 135q-317 0 -510 -207q-78 -84 -135 -228t-57 -259q0 -240 172 -415t412 -175q208 0 456 195l64 -21q-246 -246 -553 -246q-266 0 -453.5 203t-187.5 473zM586 494q0 -59 27.5 -105.5 t82.5 -46.5q96 0 169 113.5t98 226.5q4 29 8 41l41 129q4 16 4 29q0 53 -32 94t-85 41q-90 0 -166 -98.5t-111.5 -216t-35.5 -207.5z" />
<glyph unicode="A" horiz-adv-x="1480" d="M-6 0v63q92 2 140 30t81 106l492 1190h75l516 -1190q31 -70 74 -101.5t117 -34.5v-63h-563v63h45q119 0 119 64q0 31 -19 72l-110 264h-545l-107 -264q-14 -33 -14 -56q0 -80 127 -80h43v-63h-471zM449 549h473l-179 434q-45 119 -57 164q-2 -6 -7 -23.5t-9 -27.5z" />
<glyph unicode="B" horiz-adv-x="1220" d="M29 0v63q63 2 90.5 6.5t59.5 19.5t43 48t11 90v912q0 55 -11 89t-43 49t-60.5 19t-89.5 7v63h661q150 0 257.5 -78t107.5 -223q0 -275 -365 -326q180 -6 309 -100t129 -266q0 -168 -115.5 -270.5t-287.5 -102.5h-696zM438 227q0 -90 50.5 -121.5t148.5 -31.5 q137 0 198.5 90t61.5 235q0 55 -9 99.5t-30.5 74t-42 52t-60.5 36t-68 21.5t-79 11t-81 4t-89 1v-471zM438 764q78 0 124 3t104.5 17.5t89 41t53 78.5t22.5 128q0 133 -51 199.5t-178 66.5h-164v-534z" />
<glyph unicode="C" horiz-adv-x="1429" d="M100 666q0 307 194.5 520t498.5 213q240 0 444 -139q18 31 45 104h57l19 -494h-64q-113 457 -493 457q-121 0 -214 -57.5t-146.5 -150.5t-79 -200.5t-25.5 -220.5q0 -168 49 -306t167 -232t290 -94q156 0 298 95t199 238l74 -55q-78 -176 -252 -278.5t-373 -102.5 q-303 0 -495.5 198.5t-192.5 504.5z" />
<glyph unicode="D" horiz-adv-x="1497" d="M27 0v63q63 2 90.5 6.5t59.5 19.5t43 48t11 90v912q0 55 -11 89t-43 49t-60.5 19.5t-89.5 6.5v63q45 0 137 -1t137 -1t136 1t136 1q256 0 377 -41q213 -74 332 -249t119 -404q0 -303 -188.5 -487.5t-491.5 -184.5h-694zM436 297q0 -147 46 -186t196 -39q131 0 227 49 t149.5 135t79 190.5t25.5 229.5q0 301 -142.5 462.5t-434.5 161.5q-72 0 -146 -6v-997z" />
<glyph unicode="E" horiz-adv-x="1196" d="M29 0v63q63 2 90.5 6.5t59.5 19.5t43 48t11 90v912q0 55 -11 89t-43 49t-60.5 19t-89.5 7v63h1007l37 -334h-63q-31 127 -93.5 195.5t-181.5 68.5h-297v-536h129q94 0 140.5 47t50.5 143h63v-463h-63q-8 57 -16.5 88t-28 61t-54 41t-92.5 11h-129v-438q0 -102 54.5 -141 t160.5 -39q78 0 124 4t102.5 19.5t98.5 51t77 93.5q59 104 63 184h60l-27 -422h-1122z" />
<glyph unicode="F" horiz-adv-x="1056" d="M27 0v63q63 2 90.5 6.5t59.5 19.5t43 48t11 90v912q0 55 -11 89t-43 49t-60.5 19t-89.5 7v63h1001l37 -332h-61q-39 129 -97.5 196.5t-177.5 67.5h-297v-540h152q164 0 164 190h63v-465h-63q0 205 -175 205h-141v-461q0 -57 11.5 -90t44 -48t59 -19t90.5 -7v-63h-610z " />
<glyph unicode="G" horiz-adv-x="1536" d="M96 639q0 315 195.5 537.5t507.5 222.5q240 0 413 -133q27 39 45 98h58l12 -465h-70q-27 186 -148.5 311t-303.5 125q-135 0 -231.5 -60.5t-146.5 -163.5t-71.5 -214t-21.5 -238q0 -109 25.5 -213t77.5 -196t142.5 -148.5t206.5 -56.5q96 0 216 50t120 120v186 q0 76 -39 102.5t-120 26.5h-50v64h594v-64h-30q-150 0 -150 -129v-303q-78 -10 -263 -71.5t-298 -61.5q-289 0 -479.5 192.5t-190.5 481.5z" />
<glyph unicode="H" horiz-adv-x="1552" d="M27 0v63q63 2 90.5 6.5t59.5 19.5t43 48t11 90v912q0 55 -11 89t-43 49t-60.5 19t-89.5 7v63h614v-63q-111 -4 -158 -29t-47 -135v-373h680v373q0 100 -45 128.5t-160 35.5v63h615v-63q-113 -4 -158 -29q-47 -25 -47 -135v-912q0 -57 12.5 -91t40 -48t56 -18t77.5 -7h19 v-63h-615v63q80 4 117 12.5t62.5 44.5t25.5 107v451h-680v-451q0 -57 11.5 -90t44 -48t59.5 -19t90 -7v-63h-614z" />
<glyph unicode="I" horiz-adv-x="669" d="M29 0v63q63 2 90.5 6.5t59.5 19.5t43 48t11 90v912q0 55 -11 89t-43 49t-60.5 19t-89.5 7v63h614v-63q-111 -4 -158 -29t-47 -135v-912q0 -57 11.5 -90t44 -48t59.5 -19t90 -7v-63h-614z" />
<glyph unicode="J" horiz-adv-x="651" d="M-387 -367q0 43 32.5 75t75.5 32q39 0 67 -29.5t28 -68.5q0 -20 -13 -58q0 -67 119 -67h4q289 0 289 358v1264q0 55 -12.5 88t-44 48t-60.5 20.5t-88 7.5v63h615v-63q-111 -4 -158 -29q-47 -27 -47 -135v-1127q0 -252 -86 -366q-68 -92 -174.5 -144.5t-222.5 -52.5 q-49 0 -99.5 8t-103.5 26.5t-87 57.5t-34 92z" />
<glyph unicode="K" horiz-adv-x="1425" d="M27 0v63q63 2 90.5 6.5t59.5 19.5t43 48t11 90v912q0 55 -11 89t-43 49t-60.5 19t-89.5 7v63h614v-63q-111 -4 -156 -29q-49 -27 -49 -135v-443l482 443q61 57 61 92q0 74 -143 74v61h536v-61q-154 0 -276 -115l-371 -342l522 -684q78 -100 223 -101v-63h-598v63 q23 0 68 5q76 6 76 34q0 20 -31 62l-410 549l-139 -127v-359q0 -45 10.5 -75.5t23.5 -47t45 -25.5t54.5 -11t71.5 -5v-63h-614z" />
<glyph unicode="L" horiz-adv-x="1169" d="M27 0v63q63 2 90.5 6.5t59.5 19.5t43 48t11 90v912q0 55 -11 89t-43 49t-60.5 19t-89.5 7v63h614v-63q-111 -4 -158 -29t-47 -135v-889q0 -102 54.5 -141t160.5 -39q78 0 124 4t102.5 19.5t98.5 51t77 93.5q59 104 63 184h60l-27 -422h-1122z" />
<glyph unicode="M" horiz-adv-x="1800" d="M29 0v63q111 4 157.5 54.5t46.5 158.5v46v788q0 121 -40.5 154.5t-163.5 38.5v63h426l311 -745q66 -141 131 -357q4 8 8 23.5t8 23.5l437 1055h424v-63q-111 -4 -156 -29q-49 -27 -49 -135v-912q0 -94 30 -123q41 -41 154 -41h21v-63h-615v63q131 6 168 42t37 159v688 q0 145 12 287q-18 -70 -59 -172l-445 -1067h-63l-403 971q-18 45 -49 129t-42 112v-108v-733v-62q0 -127 35 -181t168 -65v-63h-489z" />
<glyph unicode="N" horiz-adv-x="1484" d="M27 0v63q113 4 158.5 54.5t45.5 167.5v854q0 55 -11 89t-43 49t-60.5 19t-89.5 7v63h405l670 -924q29 -39 76 -139q0 25 -1 70t-1 69v656q0 61 -8.5 98t-29 54.5t-38 23.5t-54 13t-59.5 16v63h471v-63q-109 -2 -152.5 -49.5t-43.5 -155.5v-1110h-86l-730 1016 q-68 90 -133 204v-868q0 -145 35 -205.5t168 -71.5v-63h-489z" />
<glyph unicode="O" horiz-adv-x="1642" d="M94 682q0 315 206 516t519 201q315 0 521 -201t206 -516q0 -311 -208 -514t-519 -203t-518 203t-207 514zM330 684q0 -127 24.5 -236.5t78.5 -205t152.5 -150.5t233.5 -55t233.5 55t153 150.5t79 205t24.5 236.5t-24.5 236.5t-79 206t-153 151.5t-233.5 55 q-109 0 -193.5 -38t-140 -99t-91.5 -146t-50 -175.5t-14 -190.5z" />
<glyph unicode="P" horiz-adv-x="1097" d="M27 0v63q63 2 90.5 6.5t59.5 19.5t43 48t11 90v912q0 55 -11 89t-43 49t-60.5 19t-89.5 7v63h481q74 0 119 -1t114.5 -8t112.5 -20.5t94 -40t81 -64.5t49.5 -96.5t19.5 -131.5q0 -96 -45 -177.5t-127 -126.5q-96 -51 -291 -51h-199v-422q0 -57 11.5 -90t44 -48t59.5 -19 t90 -7v-63h-614zM436 713h158q135 0 209 80.5t74 218.5q0 160 -76 228.5t-238 68.5q-41 0 -127 -4v-592z" />
<glyph unicode="Q" horiz-adv-x="1640" d="M96 682q0 315 211 516t527 201q311 0 513.5 -200t202.5 -511q0 -229 -120.5 -411.5t-331.5 -264.5q-74 -31 -221.5 -88t-221.5 -88q61 6 125 6q123 0 252 -40t218 -88t202 -88t209 -40q92 0 148.5 42t91.5 130q8 16 16 19q20 0 20 -23q0 -125 -138 -221t-267 -96 q-104 0 -224 57t-210 125t-207 125t-217 57q-61 0 -133 -38.5t-80 -38.5q-18 0 -30.5 16t-12.5 37q0 14 26 28q219 74 379 164q-315 0 -521 199t-206 514zM334 680q0 -100 14 -189.5t49 -174.5t89.5 -145t139.5 -97t193 -37q143 0 243.5 56.5t153 156.5t75 212t22.5 247 q0 123 -25.5 229t-79 198.5t-149.5 144.5t-228 52q-139 0 -239 -54t-154.5 -149.5t-79 -206t-24.5 -243.5z" />
<glyph unicode="R" horiz-adv-x="1382" d="M27 0v63q63 2 90.5 6.5t59.5 19.5t43 48t11 90v912q0 55 -11 89t-43 49t-60.5 19t-89.5 7v63h581q254 0 373 -90q131 -100 131 -254q0 -152 -113.5 -248t-271.5 -100q39 -6 73 -18.5t58.5 -23.5t54 -36t44 -38t43 -50t36.5 -49.5t39 -57.5t39 -57q12 -18 46 -72.5 t54.5 -80t54.5 -61.5t73.5 -51.5t87.5 -15.5v-63h-312q-88 74 -213 289t-190 289q-60 67 -161 67h-3h-115v-418q0 -57 11.5 -90t44 -48t59.5 -19t90 -7v-63h-614zM436 713h178q143 0 209 75.5t66 225.5q0 289 -305 289h-148v-590z" />
<glyph unicode="S" horiz-adv-x="1042" d="M82 0v430h63q20 -150 127 -264.5t252 -114.5q125 0 212 64.5t87 185.5q0 102 -73.5 177t-178 123t-210 100.5t-179 140.5t-73.5 209q0 156 111.5 252t268.5 96q188 0 306 -101q12 16 45 82h49v-370h-62q-25 143 -109.5 235t-223.5 92q-90 0 -159 -53t-69 -139 q0 -90 73 -157.5t177.5 -116t208.5 -103.5t177 -150.5t73 -226.5q0 -182 -113.5 -304t-296.5 -122q-203 0 -375 150q-31 -63 -45 -115h-63z" />
<glyph unicode="T" horiz-adv-x="1316" d="M-6 1034l35 332h1257l35 -332h-59q-43 131 -99.5 197.5t-175.5 66.5h-229v-1071q0 -57 11 -90t45 -48t60.5 -19t88.5 -7v-63h-611v63q61 2 91 7.5t61 20.5t42 48t11 88v1071h-229q-119 0 -176.5 -66.5t-96.5 -197.5h-61z" />
<glyph unicode="U" horiz-adv-x="1429" d="M27 1303v61h614v-61q-8 0 -34.5 -1.5t-37 -1.5t-34 -4t-33.5 -10t-25.5 -18.5t-23 -29.5t-12.5 -43t-5 -58v-656q0 -86 6.5 -146.5t25.5 -120.5t56 -96t99.5 -58.5t152.5 -22.5q102 0 171 31.5t104.5 93t49 132.5t13.5 169v18v643q0 104 -46 137t-159 42v61h494v-61 q-119 -10 -158 -33q-49 -29 -49 -146v-659q0 -240 -92 -370t-328 -130q-154 0 -248 18.5t-165.5 72t-101.5 149.5t-30 252v680q0 57 -11 90t-43 49t-59.5 20t-90.5 7z" />
<glyph unicode="V" horiz-adv-x="1480" d="M-8 1303v63h563v-63h-45q-119 0 -119 -64q0 -29 19 -74l327 -782q39 -96 58 -160q2 8 8 23.5t8 23.5l360 895q14 35 15 64q0 74 -129 74h-41v63h471v-63l-19 -3q-88 -8 -130 -33.5t-72 -101.5l-492 -1188h-74l-518 1188q-57 137 -190 138z" />
<glyph unicode="W" horiz-adv-x="1937" d="M-8 1303v63h551v-63h-31q-127 0 -127 -70q0 -12 10 -47l199 -701q12 -35 47 -198l332 1079h63l271 -786q68 -182 88 -293q6 29 47 184l196 668q16 53 17 82q0 14 -3 25t-11.5 19.5t-16.5 14.5t-22.5 10t-22.5 6t-26.5 3t-26.5 2.5t-27.5 1.5h-23.5v63h469v-63 q-88 -2 -139.5 -29t-73.5 -105l-351 -1192h-73l-361 1037l-319 -1037h-84l-363 1192q-41 133 -188 134z" />
<glyph unicode="X" horiz-adv-x="1454" d="M0 0v63q193 0 279 117l370 494l-356 514q-43 63 -95.5 86.5t-138.5 28.5v63h590v-63h-37q-102 0 -102 -46q0 -23 29 -69l235 -344l262 344q25 33 25 59q0 55 -131 56h-31v63h504v-63q-100 -8 -162.5 -30t-110.5 -85l-307 -414l400 -594q72 -106 231 -117v-63h-596v63h41 q106 0 107 52q0 27 -27 65l-287 424l-321 -424q-20 -25 -27 -49q0 -14 6 -25.5t19.5 -18.5t23.5 -11t31.5 -6t30 -3t30.5 -1l23 -3v-63h-508z" />
<glyph unicode="Y" horiz-adv-x="1357" d="M-6 1303v63h586v-63h-52q-98 0 -98 -52q0 -18 19 -59l292 -504l306 504q18 37 18 53q0 57 -188 58v63h489v-63q-86 -4 -143.5 -34t-98.5 -98l-344 -563v-381q0 -55 13.5 -89t44 -49t60.5 -19t87 -7v-63h-610v63q61 2 91 7.5t60.5 20.5t42 48t11.5 88v381l-375 584 q-39 59 -87 82.5t-124 28.5z" />
<glyph unicode="Z" horiz-adv-x="1208" d="M20 0v33l865 1255h-443q-225 0 -295 -260h-67l39 338h1038v-29l-864 -1259h506q139 0 209.5 72t113.5 215h66l-31 -365h-1137z" />
<glyph unicode="[" horiz-adv-x="563" d="M193 -563v1929h348v-68h-195v-1794h195v-67h-348z" />
<glyph unicode="\" horiz-adv-x="471" d="M-154 1366h101l682 -1929h-101z" />
<glyph unicode="]" horiz-adv-x="563" d="M23 -496h194v1794h-194v68h348v-1929h-348v67z" />
<glyph unicode="^" d="M-53 582l571 852h14l545 -852h-88l-397 614l-412 -614h-233z" />
<glyph unicode="_" d="M41 -182h942v-101h-942v101z" />
<glyph unicode="`" d="M319 1229q0 16 25 16h252l106 -254q2 -4 3 -10v-2q0 -12 -25 -12q-8 2 -25 10l-323 233q-12 8 -13 19z" />
<glyph unicode="a" horiz-adv-x="925" d="M82 188q0 82 31.5 137.5t90 84t117 45t136.5 34t125 37.5v70q0 109 -30 162t-130 53q-51 0 -81 -20.5t-41 -51t-21.5 -60.5t-32 -50.5t-60.5 -20.5q-33 0 -61.5 18.5t-28.5 49.5q0 66 61.5 114t133 66t135.5 18q326 0 326 -260v-450q0 -86 53 -90q59 0 84 92q4 8 4 14h61 q-51 -203 -204 -203q-70 0 -114 38t-54 108q-55 -63 -136 -103t-163 -40q-90 0 -145.5 58t-55.5 150zM252 246q0 -63 39 -106.5t104 -43.5q88 0 187 84v287q-29 -12 -95.5 -32.5t-109.5 -37t-82 -56.5t-43 -95z" />
<glyph unicode="b" horiz-adv-x="1107" d="M29 1303v63q160 23 307 57v-671q97 122 279 122h3q190 0 299 -126.5t109 -319t-119 -322t-309 -129.5q-143 0 -295 97q-37 -29 -65 -86l-72 12v1139q0 162 -137 164zM336 215q94 -156 250 -156q131 0 193.5 106.5t62.5 246.5q0 370 -245 370h-1q-199 0 -260 -147v-420z " />
<glyph unicode="c" horiz-adv-x="884" d="M82 397q0 201 114.5 338t313.5 137q53 0 116.5 -15t120 -55t56.5 -95q0 -33 -22.5 -55.5t-57.5 -22.5q-39 0 -72 26q-6 76 -37.5 112t-107.5 36q-84 0 -139.5 -59.5t-75 -133t-19.5 -155.5q0 -94 25 -178t90.5 -150t159.5 -66q153 0 235 160l62 -20q-78 -213 -320 -224 q-193 0 -317.5 115t-124.5 305z" />
<glyph unicode="d" horiz-adv-x="1107" d="M82 428.5q0 192.5 108.5 319t298.5 126.5h3q183 0 280 -122v387q0 162 -137 164v63q166 23 307 57v-1196q0 -162 139 -164v-63q-111 0 -247 -10q-23 43 -29 84q-152 -96 -295 -97q-190 0 -309 129.5t-119 322zM266 412q0 -139 62.5 -246t193.5 -107q160 0 250 156v420 q-61 147 -260 147q-72 0 -123 -33.5t-76.5 -92t-36 -118t-10.5 -126.5z" />
<glyph unicode="e" horiz-adv-x="929" d="M82 415.5q0 190.5 111.5 324.5t300.5 134q166 0 262 -123.5t96 -293.5h-584q0 -401 262 -402q152 0 263 156l59 -33q-127 -201 -352 -201q-188 0 -303 124t-115 314.5zM270 528h400q0 2 1 9.5t1 11.5q0 250 -189 250q-104 0 -156.5 -79t-56.5 -192z" />
<glyph unicode="f" horiz-adv-x="542" d="M27 791v61h143q0 76 2 124t11.5 118.5t32 115.5t57 89t94 65.5t139.5 21.5q72 0 130 -36.5t58 -104.5q0 -33 -23.5 -58.5t-56.5 -25.5q-43 0 -61 24.5t-17 53.5t-12.5 53.5t-48.5 24.5q-135 0 -135 -215v-250h184v-61h-184v-564q0 -98 39 -129.5t139 -36.5v-61h-485v63 q78 2 107.5 42t29.5 122v564h-143z" />
<glyph unicode="g" horiz-adv-x="964" d="M27 -248q0 90 73.5 151.5t165.5 61.5q10 0 35 -4q-6 -6 -26.5 -22.5t-28.5 -23.5t-23.5 -22.5t-21.5 -25.5t-15.5 -26.5t-12.5 -34t-3 -37.5q0 -106 90 -160.5t203 -54.5q117 0 213 56t96 165q0 78 -55 117.5t-139 46.5q-14 2 -80 5t-105 7t-99.5 17.5t-94 32.5t-60 57 t-26.5 87q0 66 58 107t130 47q-88 27 -138 96.5t-50 161.5q0 143 93 230t238 87q170 0 258 -104q84 98 189 104q39 0 69.5 -20t30.5 -57q0 -33 -19.5 -55.5t-49.5 -22.5q-25 0 -58 29.5t-57 29.5q-35 0 -78 -39q45 -76 45 -174q0 -125 -82 -205.5t-209 -89.5 q-262 -10 -270 -86q0 -41 78 -41q102 0 307 -12q145 -12 227 -71.5t82 -196.5q0 -182 -136 -287.5t-322 -105.5q-90 0 -182.5 26.5t-166 94t-73.5 161.5zM279 551q0 -94 36.5 -165t122.5 -71q90 0 132 76t42 174q0 256 -166 256q-66 0 -105.5 -47t-50.5 -102.5t-11 -120.5z " />
<glyph unicode="h" horiz-adv-x="1064" d="M29 0v63q78 2 107.5 42t29.5 122v912q0 162 -137 164v63q150 20 307 55v-661q157 114 300 114h3q131 0 197.5 -75.5t66.5 -206.5v-365q0 -82 29 -121.5t106 -42.5v-63h-442v63q78 2 106.5 42t28.5 122v361q0 86 -44 135t-132 49q-106 0 -219 -94v-451q0 -82 29.5 -121.5 t107.5 -42.5v-63h-444z" />
<glyph unicode="i" horiz-adv-x="497" d="M27 0v63q78 2 107.5 42t29.5 122v353q0 80 -31 121.5t-106 43.5v62q123 16 307 57v-637q0 -82 29.5 -121.5t107.5 -42.5v-63h-444zM143 1108q0 43 33 72.5t76 29.5q41 0 71.5 -30.5t30.5 -71.5t-30.5 -71.5t-71.5 -30.5q-43 0 -76 29.5t-33 72.5z" />
<glyph unicode="j" horiz-adv-x="466" d="M-190 -446q0 29 21.5 50t49.5 21q35 0 79 -53t83 -53q43 0 69.5 22.5t37 65.5t12.5 72.5t2 76.5v824q0 80 -31 121.5t-106 43.5v62q133 18 307 57v-1059q0 -158 -89 -263t-245 -105q-61 0 -125.5 30.5t-64.5 86.5zM147 1108q0 43 33 72.5t76 29.5q41 0 71.5 -30.5 t30.5 -71.5t-30.5 -71.5t-71.5 -30.5q-43 0 -76 29.5t-33 72.5z" />
<glyph unicode="k" horiz-adv-x="995" d="M27 0v63q78 2 107.5 42t29.5 122v912q0 162 -137 164v63q150 20 307 55v-929l270 213q23 18 25 40q0 41 -64 41q-4 0 -10 1t-10 1v62h356v-62q-119 -12 -205 -83l-196 -166l317 -369q76 -88 178 -107v-63h-391v63h39q43 0 43 29q-8 18 -27 31l-280 321l-45 -38v-179 q0 -82 29.5 -121.5t107.5 -42.5v-63h-444z" />
<glyph unicode="l" horiz-adv-x="497" d="M27 0v63q78 2 107.5 42t29.5 122v912q0 162 -137 164v63q150 20 307 55v-1194q0 -82 29.5 -121.5t107.5 -42.5v-63h-444z" />
<glyph unicode="m" horiz-adv-x="1626" d="M29 0v63q78 2 107.5 42t29.5 122v353q0 80 -31 121.5t-106 43.5v62q169 24 280 57q27 -53 27 -125q150 135 315 135q76 0 139.5 -34.5t90.5 -100.5q158 135 313 135q145 0 206.5 -73.5t61.5 -218.5v-355q0 -82 30 -121.5t107 -42.5v-63h-444v63q78 2 107.5 42t29.5 122 v328q0 106 -34.5 160.5t-143.5 54.5q-119 0 -213 -100v-74v-369q0 -82 28.5 -121.5t106.5 -42.5v-63h-442v63q78 2 106.5 42t28.5 122v344q0 199 -176 199q-102 0 -217 -100v-443q0 -82 29.5 -121.5t107.5 -42.5v-63h-444z" />
<glyph unicode="n" horiz-adv-x="1062" d="M27 0v63q78 2 107.5 42t29.5 122v353q0 80 -31 121.5t-106 43.5v62q169 24 280 57q27 -53 27 -125q150 135 315 135q250 0 250 -278v-369q0 -82 28.5 -121.5t106.5 -42.5v-63h-442v63q78 2 106.5 42t28.5 122v344q0 199 -176 199q-102 0 -217 -100v-443 q0 -82 29.5 -121.5t107.5 -42.5v-63h-444z" />
<glyph unicode="o" horiz-adv-x="1046" d="M82 414q0 207 120 333.5t326.5 126.5t321.5 -122.5t115 -329.5q0 -197 -123 -321t-320 -124q-203 0 -321.5 117t-118.5 320zM266 406q0 -152 59.5 -260.5t196.5 -108.5q96 0 157.5 62.5t81 142.5t19.5 176q0 61 -4 109t-20.5 104.5t-43 94.5t-74.5 62.5t-114 24.5 q-258 0 -258 -407z" />
<glyph unicode="p" horiz-adv-x="1081" d="M27 -483q78 2 107.5 42t29.5 122v899q0 160 -137 165v62q170 25 280 57q27 -43 27 -116q114 124 275 124h3q178 0 282.5 -128t104.5 -310q0 -188 -106.5 -322.5t-290.5 -134.5q-155 1 -268 95v-391q0 -98 39 -130t139 -36v-62h-485v64zM334 166q100 -100 219 -107 q94 0 156.5 62.5t85 144.5t22.5 176q0 137 -56 243t-181 106q-137 0 -246 -168v-457z" />
<glyph unicode="q" horiz-adv-x="1073" d="M82 408q0 188 113.5 326t298.5 138q143 0 245 -90q84 29 170 82v-1183q0 -82 30 -122t108 -42v-64h-486v62q100 4 139 35.5t39 130.5v403q-117 -106 -270 -107q-178 0 -282.5 125t-104.5 306zM264 401q0 -135 60.5 -236.5t187.5 -101.5q94 0 227 95v510q-97 116 -223 116 h-2q-70 0 -121 -36.5t-77.5 -96t-39 -122t-12.5 -128.5z" />
<glyph unicode="r" horiz-adv-x="698" d="M27 0v63q78 2 107.5 42t29.5 122v353q0 80 -31 121.5t-106 43.5v62q170 25 280 57q27 -49 27 -153q112 149 242 149h2q49 0 84.5 -29.5t35.5 -76.5q0 -31 -20.5 -56.5t-50.5 -27.5q-31 0 -68 39t-65 39q-47 0 -91 -30t-69 -73v-418q0 -94 28.5 -121.5t120.5 -44.5v-61 h-456z" />
<glyph unicode="s" horiz-adv-x="708" d="M70 0v293h49q12 -100 79.5 -169t166.5 -69q59 0 102 35t43 92q0 55 -45 97.5t-108.5 72t-127 63.5t-108.5 90t-45 130q0 109 62.5 174t168.5 65q113 0 205 -98l39 74h47v-281h-47q-20 94 -78.5 163t-148.5 69q-51 0 -85 -33t-34 -84q0 -49 45 -88t108.5 -66.5t128 -61.5 t109.5 -92.5t45 -137.5q0 -117 -69.5 -189t-184.5 -72q-131 0 -233 93l-35 -70h-49z" />
<glyph unicode="t" horiz-adv-x="528" d="M27 791v45q100 16 150 113.5t50 209.5h70v-303h227v-65h-227v-529q0 -63 23.5 -114.5t76.5 -51.5q29 0 59.5 17.5t41 27t45.5 43.5l41 -34q-100 -158 -250 -158q-207 0 -207 270v529h-100z" />
<glyph unicode="u" horiz-adv-x="1062" d="M27 811v63h307v-593q0 -199 178 -199q102 0 217 100v465q0 82 -29.5 122t-107.5 42v63h307v-647q0 -162 137 -164v-63q-126 0 -280 -10q-27 68 -27 123q-150 -135 -317 -136q-102 0 -174 57.5t-74 155.5v64v393q0 82 -30 122t-107 42z" />
<glyph unicode="v" horiz-adv-x="954" d="M-6 788v62h387v-62q-8 -4 -22.5 -5t-25.5 -2t-21.5 -8t-12.5 -21q0 -18 16 -60l207 -477l221 492q8 25 11 36q0 39 -70 43l-20 2v62h297v-62q-98 0 -125 -55l-336 -733h-54l-340 733q-29 55 -112 55z" />
<glyph unicode="w" horiz-adv-x="1368" d="M-8 788v62h377v-62q-8 -4 -31 -5t-37 -7t-18 -24q0 -14 8 -43l164 -480l233 621h70l219 -621l190 480q10 31 11 41v2q0 29 -95 36v62h289v-62q-100 -8 -129 -79l-282 -709h-70l-217 614l-236 -614h-69l-258 709q-10 29 -32 45t-34 20t-53 14z" />
<glyph unicode="x" horiz-adv-x="1052" d="M25 0v63q106 0 161 62l265 285l-250 311q-33 41 -66 54t-86 13v62h402v-62h-21q-4 0 -13 -1t-16.5 -1t-14.5 -4t-9 -10q0 -18 16 -35l168 -207l191 207q16 12 16 27q0 22 -52 22h-5q-6 0 -19.5 1t-19.5 1v62h334v-62q-104 0 -154 -51l-244 -266l269 -346q47 -61 157 -62 v-63h-426v63h47h10.5t13.5 1.5t12 3.5t10.5 5t3.5 9q0 20 -23 43l-188 227l-209 -227q-23 -27 -23 -39q0 -23 55 -23h27v-63h-319z" />
<glyph unicode="y" horiz-adv-x="954" d="M-6 788v62h393v-62q-88 0 -88 -43q0 -12 8 -36l221 -480l215 480q12 29 15 45v2q0 10 -5 16t-16.5 9t-19.5 4t-22.5 2t-16.5 1h-14v62h299v-62l-21 -2q-86 -8 -119 -77l-436 -955q-2 -6 -16.5 -38.5t-20.5 -46t-21.5 -45.5t-26.5 -48t-28.5 -42t-33 -39t-35 -28.5 t-42 -21.5t-44.5 -6q-39 0 -70 20.5t-31 59.5q0 25 15 45q6 0 16 -2t14 -2q57 0 107.5 31.5t92.5 93t68.5 110.5t62.5 129t46 103l-319 682q-37 76 -127 79z" />
<glyph unicode="z" horiz-adv-x="802" d="M27 0v68l526 723h-295q-47 0 -73.5 -27t-52.5 -84t-36 -74h-55l29 248h688v-63l-527 -723h285q41 0 75 18t59.5 57t39 67t31.5 75h53l-16 -285h-731z" />
<glyph unicode="{" d="M213 621v32q96 6 145.5 40t49.5 124q0 39 -2.5 121t-2.5 121q0 90 3.5 140t19.5 107.5t47 85t87 48t140 22.5h84q25 0 37 2v-47q-137 -4 -199.5 -49t-64.5 -176q0 -49 -1 -145.5t-1 -145.5q0 -55 -4 -90t-19.5 -73t-51.5 -61.5t-91 -35.5v-8q55 -10 90 -36t50.5 -67 t20.5 -77.5t5 -92.5q0 -49 -1 -145t-1 -145q0 -156 57.5 -213.5t210.5 -57.5v-47h-30q-51 0 -73 1t-65 4t-62.5 8.5t-53 14.5t-48 23.5l-36 36t-29.5 49t-15.5 64.5t-7.5 84q0 61 1 128.5t3.5 151.5t2.5 129q-2 98 -47.5 133.5t-147.5 41.5z" />
<glyph unicode="|" d="M449 -342v1706h129v-1706h-129z" />
<glyph unicode="}" d="M203 -201q137 0 199.5 47.5t64.5 180.5q0 63 1 186t1 186q2 100 39 158.5t127 75.5v8q-162 35 -166 201q0 164 -2 245q0 98 -6 149.5t-33 97.5t-80 63.5t-145 19.5v47q12 -2 37 -2q80 0 123 -2t94 -13t75.5 -31.5t48 -58.5t32 -95.5t8.5 -139.5q0 -49 -2.5 -149.5 t-2.5 -149.5q0 -94 47.5 -129t147.5 -41v-32q-98 -6 -146.5 -41t-48.5 -127q0 -47 2.5 -131t3.5 -154t1 -131q0 -156 -68 -217.5t-227 -65.5q-20 0 -62.5 -1t-62.5 -1v47z" />
<glyph unicode="~" d="M53 600q141 205 297 205q66 0 189 -41t186 -41q113 0 209 106l37 -18q-53 -86 -132 -144.5t-167 -58.5q-66 0 -193 42t-194 42q-41 0 -80 -19.5t-55.5 -34.5t-59.5 -58z" />
<glyph unicode="&#xa1;" horiz-adv-x="505" d="M137 -270q0 104 38 326.5t42 328.5h74q4 -109 42 -331t38 -324q0 -35 -4.5 -75t-14.5 -91t-35.5 -84t-62.5 -33q-117 0 -117 283zM139 760q0 47 34 80.5t81 33.5t80 -33.5t33 -80.5t-33 -81t-80 -34t-81 34t-34 81z" />
<glyph unicode="&#xa2;" horiz-adv-x="956" d="M94 670q0 174 103.5 321.5t271.5 151.5v203h70v-203q86 0 177 -44t97 -120q0 -33 -23.5 -57.5t-56.5 -24.5q-41 0 -74 27q1 110 -120 139v-737q2 0 7 -1t7 -1q86 0 150.5 43t91.5 122l67 -20q-25 -102 -120 -164.5t-203 -64.5v-220h-70v220q-176 16 -275.5 132.5 t-99.5 297.5zM283 723q0 -123 45 -229.5t141 -153.5v723q-98 -23 -142 -123t-44 -217z" />
<glyph unicode="&#xa3;" horiz-adv-x="956" d="M-66 94q0 61 53.5 98t118.5 37q76 0 197 -34q27 49 33 114q10 123 10 293h-217v55h219q0 96 8.5 183.5t34 195t68.5 183t120.5 128t182.5 52.5q109 0 178.5 -58.5t69.5 -162.5q0 -80 -52.5 -135.5t-132.5 -55.5q-4 0 -12 1t-12 1q72 76 71 176q0 68 -42 121t-107 53 q-70 0 -112 -53t-50 -127q-25 -219 -24 -502h235v-55h-242q-14 -272 -143 -436q139 -43 262 -43q100 0 196.5 49t98.5 141h25q6 -31 6 -59q0 -104 -70.5 -196.5t-173.5 -92.5q-164 0 -387 141q-119 -129 -258 -129q-57 0 -104.5 32t-47.5 85zM35 102q0 -27 20.5 -46 t48.5 -19q84 0 168 104q-70 35 -143 35q-37 0 -65.5 -19.5t-28.5 -54.5z" />
<glyph unicode="&#xa4;" horiz-adv-x="1366" d="M115 1196l67 68l191 -191q141 106 309 107q139 0 307 -107l195 193l67 -68l-194 -197q100 -166 100 -307q0 -131 -102 -295l194 -194l-67 -70l-193 195q-164 -106 -307 -106.5t-303 102.5l-191 -191l-69 70l188 188q-104 168 -104 309q0 129 100 304zM344 700 q0 -137 100.5 -237.5t237.5 -100.5t237.5 99.5t100.5 239t-99.5 239.5t-238.5 100q-137 0 -237.5 -100t-100.5 -240z" />
<glyph unicode="&#xa5;" horiz-adv-x="1189" d="M0 1327v39h483v-39h-61q-84 0 -90 -39q0 -27 33 -88l292 -547l265 480q45 82 45 122q0 72 -142 72v39h365v-39q-51 -4 -93 -39t-60.5 -64.5t-51.5 -93.5l-149 -284h264v-62h-293l-121 -190v-45h414v-64h-414v-282q0 -96 21.5 -130t111.5 -34h68v-39h-570v39h72 q88 0 108.5 33.5t20.5 130.5v282h-409v64h409v20l-129 215h-280v62h249l-155 311q-35 68 -50.5 93.5t-54.5 50t-98 26.5z" />
<glyph unicode="&#xa6;" d="M449 313h129v-655h-129v655zM449 672v692h129v-692h-129z" />
<glyph unicode="&#xa7;" horiz-adv-x="1132" d="M231 594q0 143 152 299q-121 113 -121 223q0 127 98.5 205t227.5 78q94 0 195.5 -63.5t101.5 -153.5q0 -29 -17.5 -54.5t-44.5 -27.5h-2q-29 0 -51 32.5t-37.5 71.5t-53.5 72t-95 33q-66 0 -122 -39t-56 -103q0 -59 54 -115.5t131 -105.5t154.5 -102t132 -126t54.5 -157 q0 -133 -129 -297q121 -121 121 -235q0 -137 -105.5 -233.5t-243.5 -96.5q-125 0 -229 80t-104 201q0 29 16 49t45 22q35 0 58.5 -39t39 -86t61.5 -86t121.5 -39t134 49.5t58.5 124.5q0 59 -56 114.5t-136 104t-160 101.5t-136.5 130t-56.5 169zM369 674q0 -55 46 -113.5 t97 -95.5t132 -87t104 -67q49 111 49 166q0 57 -43 115.5t-90.5 94.5t-125 86.5t-102.5 70.5q-68 -96 -67 -170z" />
<glyph unicode="&#xa8;" d="M201 1091.5q0 51.5 35.5 87t87 35.5t87 -35.5t35.5 -87t-35.5 -87t-87 -35.5t-87 35.5t-35.5 87zM575 1091.5q0 51.5 37 87t86 35.5q51 0 87 -35.5t36 -87t-35.5 -87t-87.5 -35.5q-49 0 -86 35.5t-37 87z" />
<glyph unicode="&#xa9;" horiz-adv-x="1646" d="M113 684q0 293 208.5 501t501.5 208t501 -208t208 -501t-208 -502t-501 -209t-501.5 209t-208.5 502zM182 684q0 -264 188.5 -452.5t452.5 -188.5t452.5 188.5t188.5 452.5t-188.5 452.5t-452.5 188.5t-452.5 -188.5t-188.5 -452.5zM453 670q0 172 108.5 285.5 t276.5 113.5q47 0 116.5 -25.5t92.5 -25.5q12 0 19 7t15.5 24.5t8.5 19.5l34 4v-239h-34q-25 82 -85.5 134t-142.5 52q-127 0 -190.5 -99.5t-63.5 -234.5q0 -141 59.5 -236.5t194.5 -95.5q158 0 275 174v-77q-115 -152 -297 -152q-166 0 -276.5 102.5t-110.5 268.5z" />
<glyph unicode="&#xaa;" horiz-adv-x="659" d="M61 616v64h580v-64h-580zM74 926q0 145 344 225v90q0 98 -109 98q-31 0 -76 -15t-45 -40q0 -10 10.5 -31.5t10.5 -33.5q0 -23 -17.5 -39.5t-39.5 -16.5q-25 0 -42.5 20.5t-17.5 45.5q0 68 76 107.5t149 39.5q96 0 149.5 -35.5t53.5 -128.5v-274v-16q0 -68 31 -68 q10 0 18.5 6t12.5 11.5t12 19.5l10 14l23 -14q-47 -84 -117 -84q-45 0 -64.5 25.5t-27.5 76.5q-127 -102 -219 -102q-51 0 -88 33.5t-37 85.5zM180 946q0 -33 19.5 -56.5t54.5 -23.5q74 0 164 86v160q-233 -55 -238 -166z" />
<glyph unicode="&#xab;" horiz-adv-x="886" d="M77.5 444.5q0.5 16.5 22.5 34.5l265 246q6 4 18 14.5t19.5 15.5t18.5 11t21 8q37 0 37 -26q0 -23 -22 -58l-195 -246l195 -245q23 -31 22 -54v-4q0 -27 -33 -26q-12 0 -24 6t-19.5 11t-20.5 17.5t-17 14.5l-265 246q-23 18 -22.5 34.5zM405.5 444.5q0.5 16.5 22.5 34.5 l262 246q53 43 80 49q37 0 37 -26q0 -20 -25 -58l-192 -246l192 -245q25 -33 25 -54v-4q0 -27 -33 -26q-12 0 -24.5 5t-20.5 11t-20.5 17.5t-18.5 15.5l-262 246q-23 18 -22.5 34.5z" />
<glyph unicode="&#xac;" d="M72 451v96h882v-547h-219v451h-663z" />
<glyph unicode="&#xad;" horiz-adv-x="436" d="M0 393v101h436v-101h-436z" />
<glyph unicode="&#xae;" horiz-adv-x="1646" d="M113 684q0 293 208.5 501t501.5 208t501 -208t208 -501t-208 -502t-501 -209t-501.5 209t-208.5 502zM182 684q0 -264 188.5 -452.5t452.5 -188.5t452.5 188.5t188.5 452.5t-188.5 452.5t-452.5 188.5t-452.5 -188.5t-188.5 -452.5zM479 1020v37h346q301 0 301 -205 q0 -125 -141 -184l158 -269q29 -51 92 -51v-37h-176l-205 355h-135v-240q0 -43 13 -60.5t54 -17.5h35v-37h-336v37q55 0 77 13.5t22 64.5v516q0 41 -13.5 59.5t-54.5 18.5h-37zM719 700h106q82 0 123 35t41 117q0 76 -45 117t-119 41h-106v-310z" />
<glyph unicode="&#xaf;" d="M166 1077v80h690v-80h-690z" />
<glyph unicode="&#xb0;" horiz-adv-x="866" d="M252 1114q0 70 46 126.5t118 64.5q90 0 155.5 -53.5t65.5 -141.5q0 -76 -58.5 -129t-134 -53t-134 55t-58.5 131zM303 1114q2 -57 44 -97t102 -40q57 0 97 42t40 99q0 55 -44 95t-100 40q-59 0 -99 -40t-40 -99z" />
<glyph unicode="&#xb1;" d="M41 96v101h942v-101h-942zM41 676v100h418v400h104v-400h420v-100h-420v-389h-104v389h-418z" />
<glyph unicode="&#xb2;" horiz-adv-x="628" d="M31 545l14 59q86 68 138.5 115t122 123t104 157.5t34.5 165.5q0 63 -44 109.5t-107.5 46.5t-109.5 -40t-46 -101q0 -37 21.5 -70t56.5 -43q-12 -41 -65 -41q-45 0 -70 40t-25 87q0 96 73 152.5t171 56.5q109 0 188.5 -65.5t79.5 -170.5q0 -33 -7 -64.5t-16 -57t-30.5 -56 t-34 -50t-46.5 -50.5t-46 -44t-53 -45t-50.5 -38t-53.5 -39t-48 -35h287q14 0 26.5 5t21.5 17.5t14.5 18.5t13.5 27.5t10 23.5h43l-53 -194h-514z" />
<glyph unicode="&#xb3;" horiz-adv-x="628" d="M47 690q0 37 28.5 66.5t65.5 29.5q2 0 10.5 -1t10.5 -1q-20 -41 -21 -71q0 -57 46 -95t104 -38q76 0 119 52t43 132q0 68 -30 121t-91 59q-16 0 -31 -12q-41 -23 -59 -23q-20 0 -37 13.5t-19 33.5v2q0 41 80 41q37 0 70 -6q45 12 71.5 58.5t26.5 95.5q0 72 -38 124 t-105 52q-41 0 -74 -23.5t-33 -64.5q0 -43 41 -88q-25 -14 -45 -14q-35 0 -60.5 23.5t-25.5 57.5q0 72 68.5 109t144.5 37q92 0 168 -56.5t76 -146.5q0 -125 -129 -180q160 -72 160 -207q0 -113 -91.5 -176.5t-209.5 -63.5q-86 0 -160 40t-74 120z" />
<glyph unicode="&#xb4;" d="M322 979v2q0 6 2 10l106 254h252q25 0 25 -16q0 -10 -13 -19l-323 -233q-16 -8 -25 -10q-25 0 -24 12z" />
<glyph unicode="&#xb6;" horiz-adv-x="1167" d="M96 1049q0 80 38 152.5t104 113.5q82 51 249 51h101h497v-51h-36q-86 0 -105.5 -25.5t-19.5 -109.5v-21v-1165v-45q2 -57 23.5 -70.5t82.5 -13.5h43v-51h-250v1497h-182v-1497h-274v51h45q84 0 104.5 24.5t24.5 108.5v719q-16 0 -46 -1t-44 -1q-158 0 -256.5 89 t-98.5 245zM246 1022q0 -104 56 -175t157 -71h82v539q-174 0 -234.5 -56.5t-60.5 -236.5z" />
<glyph unicode="&#xb7;" horiz-adv-x="956" d="M365 444.5q0 47.5 33.5 81t80.5 33.5t80 -33.5t33 -81t-33 -81t-80 -33.5t-80.5 33.5t-33.5 81z" />
<glyph unicode="&#xb8;" d="M311 -406l33 68q68 -27 111 -27t76.5 25t35.5 68q0 79 -133 120l41 152h76l-19 -82q80 -8 133.5 -53t53.5 -123q0 -82 -72 -136.5t-158 -54.5q-82 0 -178 43z" />
<glyph unicode="&#xb9;" horiz-adv-x="602" d="M123 545v47q68 0 94.5 16.5t26.5 77.5v545h-107v49q90 2 228 84v-678q0 -59 25.5 -76.5t90.5 -17.5v-47h-358z" />
<glyph unicode="&#xba;" horiz-adv-x="659" d="M41 616v64h580v-64h-580zM66 1096q0 119 73.5 199.5t190.5 80.5q119 0 192.5 -81t73.5 -201q0 -125 -70.5 -208t-193.5 -83t-194.5 84t-71.5 209zM174 1094q0 -252 156 -252q158 0 157 252q1 245 -157 245q-156 0 -156 -245z" />
<glyph unicode="&#xbb;" horiz-adv-x="886" d="M82 141q0 29 22 56l195 247l-195 246q-23 37 -22 51q0 33 33 33q12 0 24.5 -6t19.5 -11t20.5 -17.5t17.5 -14.5l264 -246q23 -23 22 -35q0 -16 -22 -34l-264 -246q-4 -4 -16.5 -15.5t-19.5 -17.5t-19.5 -11t-22.5 -5q-37 0 -37 26zM408 145q2 25 24 52l193 247l-193 246 q-23 29 -24 51q0 33 32 33q31 0 84 -49l264 -246q23 -29 23 -35q0 -12 -23 -34l-264 -246q-4 -4 -17 -15.5t-20.5 -16.5t-19.5 -11t-23 -6q-37 0 -36 30z" />
<glyph unicode="&#xbc;" horiz-adv-x="1499" d="M123 545v47q66 0 93.5 16.5t27.5 75.5v547h-107v49q90 2 228 84v-680q0 -59 26.5 -75.5t89.5 -16.5v-47h-358zM330 0l755 1366h72l-756 -1366h-71zM883 197l405 604q2 4 10 12q20 0 21 -16v-543q33 0 49 2t35.5 15.5t30.5 39.5l49 4l-37 -118h-127v-78q0 -72 61 -72h31 v-47h-305v47q47 0 70.5 14.5t23.5 57.5v78h-317zM981 254h219v342z" />
<glyph unicode="&#xbd;" horiz-adv-x="1499" d="M123 545v47q66 0 93.5 16.5t27.5 75.5v547h-107v49q90 2 228 84v-680q0 -59 26.5 -75.5t89.5 -16.5v-47h-358zM330 0l755 1366h72l-756 -1366h-71zM901 0l14 59q72 57 110 90t102.5 96.5t98.5 115t61.5 121t27.5 139.5q0 63 -44 109t-107.5 46t-109.5 -40t-46 -101 q0 -37 21.5 -70t55.5 -43q-12 -41 -65 -41q-45 0 -69.5 40t-24.5 87q0 96 72.5 152.5t170.5 56.5q106 0 187.5 -65.5t81.5 -169.5q0 -33 -7.5 -65t-16.5 -57.5t-30.5 -56t-34 -50t-46 -50.5t-46 -44t-53.5 -45t-50 -38t-53 -39t-48 -35h284q14 0 26.5 5.5t22 16.5t14.5 20.5 t13 26.5t12 24h43l-53 -195h-514z" />
<glyph unicode="&#xbe;" horiz-adv-x="1525" d="M47 690q0 39 26.5 67.5t65.5 28.5q4 0 11.5 -1t11.5 -1q-20 -37 -21 -71q0 -55 46 -93t104 -38q78 0 120 51t42 131q0 68 -30 121t-91 59q-14 0 -37 -17.5t-53 -17.5q-20 0 -37 13.5t-19 33.5v2q0 41 90 41q10 0 30 -2t30 -2q45 10 71.5 56.5t26.5 97.5q0 70 -38 123 t-105 53q-41 0 -74 -24.5t-33 -63.5q0 -45 41 -90q-29 -14 -51 -14q-35 4 -57.5 26.5t-22.5 54.5q0 72 68.5 110t144.5 38q92 0 168 -56.5t76 -146.5q0 -127 -129 -182q160 -70 160 -207q0 -113 -91.5 -176.5t-209.5 -63.5q-86 0 -160 40t-74 120zM356 0l756 1366h72 l-756 -1366h-72zM909 197l406 604q2 4 10 12q20 0 21 -16v-543q33 0 49 2t35.5 15.5t29.5 39.5l49 4l-36 -118h-127v-78q0 -72 61 -72h31v-47h-305v47q47 0 70.5 14.5t23.5 57.5v78h-318zM1008 254h219v342z" />
<glyph unicode="&#xbf;" horiz-adv-x="843" d="M172 -197q0 113 70.5 210.5t181.5 97.5q61 0 113 -35v309h71v-418h-41q-41 68 -104 68q-51 0 -83 -48t-40 -98.5t-8 -101.5q0 -106 44 -192.5t142 -86.5q43 0 70.5 21.5t38 48.5t29 49.5t42.5 24.5q68 0 68 -62q0 -72 -83 -107.5t-167 -35.5q-145 0 -244.5 105.5 t-99.5 250.5zM457 760q0 47 33.5 80.5t80.5 33.5t80 -33.5t33 -80.5t-33 -81t-80 -34t-80.5 34t-33.5 81z" />
<glyph unicode="&#xc0;" horiz-adv-x="1480" d="M-6 0v63q92 2 140 30t81 106l492 1190h75l516 -1190q31 -70 74 -101.5t117 -34.5v-63h-563v63h45q119 0 119 64q0 31 -19 72l-110 264h-545l-107 -264q-14 -33 -14 -56q0 -80 127 -80h43v-63h-471zM449 549h473l-179 434q-45 119 -57 164q-2 -6 -7 -23.5t-9 -27.5z M549 1710q0 16 24 16h252l107 -253q2 -4 2 -11v-2q0 -12 -25 -12q-8 2 -24 10l-324 234q-12 8 -12 18z" />
<glyph unicode="&#xc1;" horiz-adv-x="1480" d="M-6 0v63q92 2 140 30t81 106l492 1190h75l516 -1190q31 -70 74 -101.5t117 -34.5v-63h-563v63h45q119 0 119 64q0 31 -19 72l-110 264h-545l-107 -264q-14 -33 -14 -56q0 -80 127 -80h43v-63h-471zM449 549h473l-179 434q-45 119 -57 164q-2 -6 -7 -23.5t-9 -27.5z M549 1460v2q0 6 2 11l106 253h252q25 0 25 -16q0 -10 -12 -18l-324 -234q-16 -8 -25 -10q-25 0 -24 12z" />
<glyph unicode="&#xc2;" horiz-adv-x="1480" d="M-6 0v63q92 2 140 30t81 106l492 1190h75l516 -1190q31 -70 74 -101.5t117 -34.5v-63h-563v63h45q119 0 119 64q0 31 -19 72l-110 264h-545l-107 -264q-14 -33 -14 -56q0 -80 127 -80h43v-63h-471zM449 549h473l-179 434q-45 119 -57 164q-2 -6 -7 -23.5t-9 -27.5z M479 1470q0 14 17 31l245 244l248 -244q14 -14 15 -24q0 -37 -33 -37h-2q-12 0 -31 14l-197 135l-194 -135q-18 -14 -31 -14h-2q-27 0 -35 30z" />
<glyph unicode="&#xc3;" horiz-adv-x="1480" d="M-6 0v63q92 2 140 30t81 106l492 1190h75l516 -1190q31 -70 74 -101.5t117 -34.5v-63h-563v63h45q119 0 119 64q0 31 -19 72l-110 264h-545l-107 -264q-14 -33 -14 -56q0 -80 127 -80h43v-63h-471zM408 1503q109 180 223 180q49 0 145 -28.5t148 -28.5q55 1 118 60 l35 -25q-104 -162 -219 -166q-51 0 -147.5 27.5t-145.5 27.5q-53 0 -119 -69zM449 549h473l-179 434q-45 119 -57 164q-2 -6 -7 -23.5t-9 -27.5z" />
<glyph unicode="&#xc4;" horiz-adv-x="1480" d="M-6 0v63q92 2 140 30t81 106l492 1190h75l516 -1190q31 -70 74 -101.5t117 -34.5v-63h-563v63h45q119 0 119 64q0 31 -19 72l-110 264h-545l-107 -264q-14 -33 -14 -56q0 -80 127 -80h43v-63h-471zM432 1577q0 51 36 87t87 36t87 -36t36 -87t-36 -87t-87 -36t-87 36 t-36 87zM449 549h473l-179 434q-45 119 -57 164q-2 -6 -7 -23.5t-9 -27.5zM807 1577q0 51 37 87t86 36q51 0 87 -36t36 -87t-36 -87t-87 -36q-49 0 -86 36t-37 87z" />
<glyph unicode="&#xc5;" horiz-adv-x="1480" d="M-6 0v63q92 2 140 30t81 106l492 1190h75l516 -1190q31 -70 74 -101.5t117 -34.5v-63h-563v63h45q119 0 119 64q0 31 -19 72l-110 264h-545l-107 -264q-14 -33 -14 -56q0 -80 127 -80h43v-63h-471zM449 549h473l-179 434q-45 119 -57 164q-2 -6 -7 -23.5t-9 -27.5z M567 1618q0 70 52.5 122t121.5 52q72 0 123 -53t51 -127q0 -70 -52 -119t-121.5 -49t-122 52t-52.5 122zM647 1618q0 -39 27.5 -66.5t66.5 -27.5t67 27.5t28 66.5t-28 66.5t-67 27.5t-66.5 -27.5t-27.5 -66.5z" />
<glyph unicode="&#xc6;" horiz-adv-x="1804" d="M-6 0v63q86 2 137 43t92 125l477 965q10 29 13 35q0 72 -142 72h-14v63h1083l39 -336h-63q-39 147 -105.5 205.5t-212.5 58.5h-249v-495h155q80 0 119 54t41 136h61v-465h-61q-4 197 -152 197h-163v-467q0 -109 62.5 -147.5t176.5 -38.5q197 0 300 81.5t136 274.5h62 l-25 -424h-1122v63q127 6 166 38t39 153v397h-324l-184 -372q-33 -68 -39 -111q0 -96 154 -105v-63h-457zM557 721h287v586z" />
<glyph unicode="&#xc7;" horiz-adv-x="1454" d="M100 666q0 307 193.5 520t499.5 213q238 0 444 -137q6 10 45 104h57l19 -496h-64q-115 459 -493 459q-121 0 -215 -57.5t-146.5 -151.5t-78 -200.5t-25.5 -221.5q0 -123 29.5 -232.5t88 -200.5t158 -144t230.5 -53q158 0 297 93t200 238l74 -55q-78 -168 -241.5 -271.5 t-352.5 -107.5l-24 -78q168 -39 168 -166q0 -76 -62.5 -127t-140.5 -51q-100 0 -193 60l33 45q59 -33 121 -39q47 0 81 32.5t34 77.5t-32 72t-87 49l41 125q-291 4 -474.5 206t-183.5 495z" />
<glyph unicode="&#xc8;" horiz-adv-x="1196" d="M29 0v63q63 2 90.5 6.5t59.5 19.5t43 48t11 90v912q0 55 -11 89t-43 49t-60.5 19t-89.5 7v63h1007l37 -334h-63q-31 127 -93.5 195.5t-181.5 68.5h-297v-536h129q94 0 140.5 47t50.5 143h63v-463h-63q-8 57 -16.5 88t-28 61t-54 41t-92.5 11h-129v-438q0 -102 54.5 -141 t160.5 -39q78 0 124 4t102.5 19.5t98.5 51t77 93.5q59 104 63 184h60l-27 -422h-1122zM406 1710q0 16 24 16h252l106 -253q2 -4 3 -11v-2q0 -12 -25 -12q-8 2 -25 10l-323 234q-12 8 -12 18z" />
<glyph unicode="&#xc9;" horiz-adv-x="1196" d="M29 0v63q63 2 90.5 6.5t59.5 19.5t43 48t11 90v912q0 55 -11 89t-43 49t-60.5 19t-89.5 7v63h1007l37 -334h-63q-31 127 -93.5 195.5t-181.5 68.5h-297v-536h129q94 0 140.5 47t50.5 143h63v-463h-63q-8 57 -16.5 88t-28 61t-54 41t-92.5 11h-129v-438q0 -102 54.5 -141 t160.5 -39q78 0 124 4t102.5 19.5t98.5 51t77 93.5q59 104 63 184h60l-27 -422h-1122zM406 1460v2q0 6 2 11l106 253h252q25 0 25 -16q0 -10 -13 -18l-323 -234q-16 -8 -25 -10q-25 0 -24 12z" />
<glyph unicode="&#xca;" horiz-adv-x="1196" d="M29 0v63q63 2 90.5 6.5t59.5 19.5t43 48t11 90v912q0 55 -11 89t-43 49t-60.5 19t-89.5 7v63h1007l37 -334h-63q-31 127 -93.5 195.5t-181.5 68.5h-297v-536h129q94 0 140.5 47t50.5 143h63v-463h-63q-8 57 -16.5 88t-28 61t-54 41t-92.5 11h-129v-438q0 -102 54.5 -141 t160.5 -39q78 0 124 4t102.5 19.5t98.5 51t77 93.5q59 104 63 184h60l-27 -422h-1122zM336 1470q0 14 16 31l246 244l248 -244q14 -14 14 -24q0 -37 -33 -37h-2q-12 0 -30 14l-197 135l-195 -135q-18 -14 -30 -14h-2q-27 0 -35 30z" />
<glyph unicode="&#xcb;" horiz-adv-x="1196" d="M29 0v63q63 2 90.5 6.5t59.5 19.5t43 48t11 90v912q0 55 -11 89t-43 49t-60.5 19t-89.5 7v63h1007l37 -334h-63q-31 127 -93.5 195.5t-181.5 68.5h-297v-536h129q94 0 140.5 47t50.5 143h63v-463h-63q-8 57 -16.5 88t-28 61t-54 41t-92.5 11h-129v-438q0 -102 54.5 -141 t160.5 -39q78 0 124 4t102.5 19.5t98.5 51t77 93.5q59 104 63 184h60l-27 -422h-1122zM289 1577q0 51 35.5 87t87 36t87.5 -36t36 -87t-36 -87t-87.5 -36t-87 36t-35.5 87zM664 1577q0 51 36.5 87t85.5 36q51 0 87 -36t36 -87t-35.5 -87t-87.5 -36q-49 0 -85.5 36t-36.5 87z " />
<glyph unicode="&#xcc;" horiz-adv-x="669" d="M29 0v63q63 2 90.5 6.5t59.5 19.5t43 48t11 90v912q0 55 -11 89t-43 49t-60.5 19t-89.5 7v63h614v-63q-111 -4 -158 -29t-47 -135v-912q0 -57 11.5 -90t44 -48t59.5 -19t90 -7v-63h-614zM143 1710q0 16 25 16h252l106 -253q2 -4 2 -11v-2q0 -12 -24 -12q-8 2 -25 10 l-323 234q-12 8 -13 18z" />
<glyph unicode="&#xcd;" horiz-adv-x="669" d="M29 0v63q63 2 90.5 6.5t59.5 19.5t43 48t11 90v912q0 55 -11 89t-43 49t-60.5 19t-89.5 7v63h614v-63q-111 -4 -158 -29t-47 -135v-912q0 -57 11.5 -90t44 -48t59.5 -19t90 -7v-63h-614zM143 1460v2q0 6 2 11l107 253h252q25 0 24 -16q0 -10 -12 -18l-323 -234 q-16 -8 -25 -10q-25 0 -25 12z" />
<glyph unicode="&#xce;" horiz-adv-x="669" d="M29 0v63q63 2 90.5 6.5t59.5 19.5t43 48t11 90v912q0 55 -11 89t-43 49t-60.5 19t-89.5 7v63h614v-63q-111 -4 -158 -29t-47 -135v-912q0 -57 11.5 -90t44 -48t59.5 -19t90 -7v-63h-614zM72 1470q0 14 16 31l246 244l248 -244q14 -14 14 -24q0 -37 -33 -37h-2 q-12 0 -31 14l-196 135l-195 -135q-18 -14 -30 -14h-3q-27 0 -34 30z" />
<glyph unicode="&#xcf;" horiz-adv-x="669" d="M25 1577q0 51 35.5 87t87 36t87 -36t35.5 -87t-35.5 -87t-87 -36t-87 36t-35.5 87zM29 0v63q63 2 90.5 6.5t59.5 19.5t43 48t11 90v912q0 55 -11 89t-43 49t-60.5 19t-89.5 7v63h614v-63q-111 -4 -158 -29t-47 -135v-912q0 -57 11.5 -90t44 -48t59.5 -19t90 -7v-63h-614z M399 1577q0 51 37 87t86 36q51 0 87 -36t36 -87t-36 -87t-87 -36q-49 0 -86 36t-37 87z" />
<glyph unicode="&#xd0;" horiz-adv-x="1497" d="M27 0v63q63 2 90.5 6.5t59.5 19.5t43 48t11 90v451h-131v78h131v383q0 55 -11 89t-43 49t-60.5 19.5t-89.5 6.5v63q45 0 137 -1t137 -1t136 1t136 1q256 0 377 -41q213 -74 332 -249t119 -404q0 -303 -188.5 -487.5t-491.5 -184.5h-694zM436 297q0 -147 46 -186t196 -39 q131 0 227 49t149.5 135t79 190.5t25.5 229.5q0 301 -142.5 462.5t-434.5 161.5q-72 0 -146 -6v-538h381v-78h-381v-381z" />
<glyph unicode="&#xd1;" horiz-adv-x="1484" d="M27 0v63q113 4 158.5 54.5t45.5 167.5v854q0 55 -11 89t-43 49t-60.5 19t-89.5 7v63h405l670 -924q29 -39 76 -139q0 25 -1 70t-1 69v656q0 61 -8.5 98t-29 54.5t-38 23.5t-54 13t-59.5 16v63h471v-63q-109 -2 -152.5 -49.5t-43.5 -155.5v-1110h-86l-730 1016 q-68 90 -133 204v-868q0 -145 35 -205.5t168 -71.5v-63h-489zM408 1503q109 180 223 180q49 0 145 -28.5t148 -28.5q55 1 118 60l35 -25q-104 -162 -219 -166q-51 0 -147.5 27.5t-145.5 27.5q-53 0 -119 -69z" />
<glyph unicode="&#xd2;" horiz-adv-x="1642" d="M94 682q0 315 206 516t519 201q315 0 521 -201t206 -516q0 -311 -208 -514t-519 -203t-518 203t-207 514zM330 684q0 -127 24.5 -236.5t78.5 -205t152.5 -150.5t233.5 -55t233.5 55t153 150.5t79 205t24.5 236.5t-24.5 236.5t-79 206t-153 151.5t-233.5 55 q-109 0 -193.5 -38t-140 -99t-91.5 -146t-50 -175.5t-14 -190.5zM627 1710q0 16 24 16h252l107 -253q2 -4 2 -11v-2q0 -12 -25 -12q-8 2 -24 10l-324 234q-12 8 -12 18z" />
<glyph unicode="&#xd3;" horiz-adv-x="1642" d="M94 682q0 315 206 516t519 201q315 0 521 -201t206 -516q0 -311 -208 -514t-519 -203t-518 203t-207 514zM330 684q0 -127 24.5 -236.5t78.5 -205t152.5 -150.5t233.5 -55t233.5 55t153 150.5t79 205t24.5 236.5t-24.5 236.5t-79 206t-153 151.5t-233.5 55 q-109 0 -193.5 -38t-140 -99t-91.5 -146t-50 -175.5t-14 -190.5zM627 1460v2q0 6 2 11l106 253h252q25 0 25 -16q0 -10 -13 -18l-323 -234q-16 -8 -25 -10q-25 0 -24 12z" />
<glyph unicode="&#xd4;" horiz-adv-x="1642" d="M94 682q0 315 206 516t519 201q315 0 521 -201t206 -516q0 -311 -208 -514t-519 -203t-518 203t-207 514zM330 684q0 -127 24.5 -236.5t78.5 -205t152.5 -150.5t233.5 -55t233.5 55t153 150.5t79 205t24.5 236.5t-24.5 236.5t-79 206t-153 151.5t-233.5 55 q-109 0 -193.5 -38t-140 -99t-91.5 -146t-50 -175.5t-14 -190.5zM557 1470q0 14 16 31l246 244l248 -244q14 -14 14 -24q0 -37 -32 -37h-2q-12 0 -31 14l-197 135l-194 -135q-18 -14 -31 -14h-2q-27 0 -35 30z" />
<glyph unicode="&#xd5;" horiz-adv-x="1642" d="M94 682q0 315 206 516t519 201q315 0 521 -201t206 -516q0 -311 -208 -514t-519 -203t-518 203t-207 514zM330 684q0 -127 24.5 -236.5t78.5 -205t152.5 -150.5t233.5 -55t233.5 55t153 150.5t79 205t24.5 236.5t-24.5 236.5t-79 206t-153 151.5t-233.5 55 q-109 0 -193.5 -38t-140 -99t-91.5 -146t-50 -175.5t-14 -190.5zM485 1501q109 180 224 180q49 0 145 -28.5t147 -28.5q56 0 119 59l35 -24q-104 -162 -219 -166q-51 0 -147.5 27.5t-145.5 27.5q-53 0 -119 -69z" />
<glyph unicode="&#xd6;" horiz-adv-x="1642" d="M94 682q0 315 206 516t519 201q315 0 521 -201t206 -516q0 -311 -208 -514t-519 -203t-518 203t-207 514zM330 684q0 -127 24.5 -236.5t78.5 -205t152.5 -150.5t233.5 -55t233.5 55t153 150.5t79 205t24.5 236.5t-24.5 236.5t-79 206t-153 151.5t-233.5 55 q-109 0 -193.5 -38t-140 -99t-91.5 -146t-50 -175.5t-14 -190.5zM510 1577q0 51 36 87t87 36t87 -36t36 -87t-36 -87t-87 -36t-87 36t-36 87zM885 1577q0 51 36.5 87t86.5 36q51 0 86.5 -36t35.5 -87t-35.5 -87t-86.5 -36q-49 0 -86 36t-37 87z" />
<glyph unicode="&#xd7;" d="M119 387l321 322l-319 317l72 72l319 -320l319 322l74 -74l-321 -319l319 -320l-69 -72l-320 320l-321 -322z" />
<glyph unicode="&#xd8;" horiz-adv-x="1642" d="M94 682q0 315 206 516t519 201q252 0 432 -127l140 172l61 -49l-141 -170l6 -4q229 -209 229 -539q0 -313 -205.5 -515t-521.5 -202q-252 0 -436 131l-139 -170l-62 49l142 170q-6 4 -19 17q-211 209 -211 520zM330 684q0 -278 98 -440l739 940q-135 150 -348 149 q-133 0 -232.5 -55t-153.5 -150.5t-78.5 -206t-24.5 -237.5zM475 180q125 -143 344 -143q135 0 233.5 55t153 150.5t79 205t24.5 236.5q-1 280 -95 434z" />
<glyph unicode="&#xd9;" horiz-adv-x="1429" d="M27 1303v61h614v-61q-8 0 -34.5 -1.5t-37 -1.5t-34 -4t-33.5 -10t-25.5 -18.5t-23 -29.5t-12.5 -43t-5 -58v-656q0 -86 6.5 -146.5t25.5 -120.5t56 -96t99.5 -58.5t152.5 -22.5q102 0 171 31.5t104.5 93t49 132.5t13.5 169v18v643q0 104 -46 137t-159 42v61h494v-61 q-119 -10 -158 -33q-49 -29 -49 -146v-659q0 -240 -92 -370t-328 -130q-154 0 -248 18.5t-165.5 72t-101.5 149.5t-30 252v680q0 57 -11 90t-43 49t-59.5 20t-90.5 7zM522 1710q0 16 25 16h252l106 -253q2 -4 2 -11v-2q0 -12 -24 -12q-8 2 -25 10l-323 234q-12 8 -13 18z " />
<glyph unicode="&#xda;" horiz-adv-x="1429" d="M27 1303v61h614v-61q-8 0 -34.5 -1.5t-37 -1.5t-34 -4t-33.5 -10t-25.5 -18.5t-23 -29.5t-12.5 -43t-5 -58v-656q0 -86 6.5 -146.5t25.5 -120.5t56 -96t99.5 -58.5t152.5 -22.5q102 0 171 31.5t104.5 93t49 132.5t13.5 169v18v643q0 104 -46 137t-159 42v61h494v-61 q-119 -10 -158 -33q-49 -29 -49 -146v-659q0 -240 -92 -370t-328 -130q-154 0 -248 18.5t-165.5 72t-101.5 149.5t-30 252v680q0 57 -11 90t-43 49t-59.5 20t-90.5 7zM520 1460v2q0 6 2 11l107 253h252q25 0 24 -16q0 -10 -12 -18l-324 -234q-16 -8 -24 -10q-25 0 -25 12z " />
<glyph unicode="&#xdb;" horiz-adv-x="1429" d="M27 1303v61h614v-61q-8 0 -34.5 -1.5t-37 -1.5t-34 -4t-33.5 -10t-25.5 -18.5t-23 -29.5t-12.5 -43t-5 -58v-656q0 -86 6.5 -146.5t25.5 -120.5t56 -96t99.5 -58.5t152.5 -22.5q102 0 171 31.5t104.5 93t49 132.5t13.5 169v18v643q0 104 -46 137t-159 42v61h494v-61 q-119 -10 -158 -33q-49 -29 -49 -146v-659q0 -240 -92 -370t-328 -130q-154 0 -248 18.5t-165.5 72t-101.5 149.5t-30 252v680q0 57 -11 90t-43 49t-59.5 20t-90.5 7zM451 1470q0 14 16 31l246 244l248 -244q14 -14 14 -24q0 -37 -33 -37h-2q-12 0 -31 14l-196 135 l-195 -135q-18 -14 -31 -14h-2q-27 0 -34 30z" />
<glyph unicode="&#xdc;" horiz-adv-x="1429" d="M27 1303v61h614v-61q-8 0 -34.5 -1.5t-37 -1.5t-34 -4t-33.5 -10t-25.5 -18.5t-23 -29.5t-12.5 -43t-5 -58v-656q0 -86 6.5 -146.5t25.5 -120.5t56 -96t99.5 -58.5t152.5 -22.5q102 0 171 31.5t104.5 93t49 132.5t13.5 169v18v643q0 104 -46 137t-159 42v61h494v-61 q-119 -10 -158 -33q-49 -29 -49 -146v-659q0 -240 -92 -370t-328 -130q-154 0 -248 18.5t-165.5 72t-101.5 149.5t-30 252v680q0 57 -11 90t-43 49t-59.5 20t-90.5 7zM403 1577q0 51 36 87t87.5 36t87 -36t35.5 -87t-35.5 -87t-87 -36t-87.5 36t-36 87zM778 1577q0 51 37 87 t86 36q51 0 87 -36t36 -87t-36 -87t-87 -36q-49 0 -86 36t-37 87z" />
<glyph unicode="&#xdd;" horiz-adv-x="1357" d="M-6 1303v63h586v-63h-52q-98 0 -98 -52q0 -18 19 -59l292 -504l306 504q18 37 18 53q0 57 -188 58v63h489v-63q-86 -4 -143.5 -34t-98.5 -98l-344 -563v-381q0 -55 13.5 -89t44 -49t60.5 -19t87 -7v-63h-610v63q61 2 91 7.5t60.5 20.5t42 48t11.5 88v381l-375 584 q-39 59 -87 82.5t-124 28.5zM487 1460v2q0 6 2 11l107 253h252q25 0 24 -16q0 -10 -12 -18l-323 -234q-16 -8 -25 -10q-25 0 -25 12z" />
<glyph unicode="&#xde;" horiz-adv-x="1097" d="M27 0v63q63 2 90.5 6.5t59.5 19.5t43 48t11 90v912q0 53 -13 87t-45 49t-60.5 20t-85.5 8v63h614v-63q-133 -6 -172 -37q-33 -25 -33 -70v-49q25 0 74 1t74 1q84 0 151.5 -7t138 -31t116.5 -61.5t77 -105t31 -158.5q0 -96 -45 -178t-127 -125q-92 -51 -291 -51h-199v-205 q0 -57 11.5 -90t44 -48t59.5 -19t90 -7v-63h-614zM436 496h158q135 0 209 79.5t74 217.5q0 164 -79 231.5t-247 67.5q-16 0 -35.5 -1t-43 -3.5t-36.5 -2.5v-589z" />
<glyph unicode="&#xdf;" horiz-adv-x="1087" d="M39 0v63q78 2 107.5 42t29.5 122v797q0 166 107.5 270.5t275.5 104.5q147 0 257 -87t110 -231q0 -104 -65.5 -166.5t-180.5 -113.5q141 -39 225 -145.5t84 -252.5q0 -166 -94 -296t-256 -130q-57 0 -110.5 34t-53.5 89q0 29 20.5 51.5t49.5 22.5q41 0 81 -61.5t76 -61.5 q100 0 101 340q0 199 -75 281t-269 82v77q4 0 10 -1t8 -1q131 0 204 64.5t73 193.5q0 254 -215 254q-193 0 -193 -231v-895q0 -39 2 -58.5t9.5 -44t28 -35.5t52.5 -14v-63h-399z" />
<glyph unicode="&#xe0;" horiz-adv-x="925" d="M82 188q0 82 31.5 137.5t90 84t117 45t136.5 34t125 37.5v70q0 109 -30 162t-130 53q-51 0 -81 -20.5t-41 -51t-21.5 -60.5t-32 -50.5t-60.5 -20.5q-33 0 -61.5 18.5t-28.5 49.5q0 66 61.5 114t133 66t135.5 18q326 0 326 -260v-450q0 -86 53 -90q59 0 84 92q4 8 4 14h61 q-51 -203 -204 -203q-70 0 -114 38t-54 108q-55 -63 -136 -103t-163 -40q-90 0 -145.5 58t-55.5 150zM252 246q0 -63 39 -106.5t104 -43.5q88 0 187 84v287q-29 -12 -95.5 -32.5t-109.5 -37t-82 -56.5t-43 -95zM270 1229q0 16 25 16h252l106 -254q2 -4 2 -10v-2 q0 -12 -24 -12q-8 2 -25 10l-323 233q-12 8 -13 19z" />
<glyph unicode="&#xe1;" horiz-adv-x="925" d="M82 188q0 82 31.5 137.5t90 84t117 45t136.5 34t125 37.5v70q0 109 -30 162t-130 53q-51 0 -81 -20.5t-41 -51t-21.5 -60.5t-32 -50.5t-60.5 -20.5q-33 0 -61.5 18.5t-28.5 49.5q0 66 61.5 114t133 66t135.5 18q326 0 326 -260v-450q0 -86 53 -90q59 0 84 92q4 8 4 14h61 q-51 -203 -204 -203q-70 0 -114 38t-54 108q-55 -63 -136 -103t-163 -40q-90 0 -145.5 58t-55.5 150zM252 246q0 -63 39 -106.5t104 -43.5q88 0 187 84v287q-29 -12 -95.5 -32.5t-109.5 -37t-82 -56.5t-43 -95zM270 979v2q0 6 2 10l107 254h252q25 0 24 -16q0 -10 -12 -19 l-324 -233q-16 -8 -24 -10q-25 0 -25 12z" />
<glyph unicode="&#xe2;" horiz-adv-x="925" d="M82 188q0 82 31.5 137.5t90 84t117 45t136.5 34t125 37.5v70q0 109 -30 162t-130 53q-51 0 -81 -20.5t-41 -51t-21.5 -60.5t-32 -50.5t-60.5 -20.5q-33 0 -61.5 18.5t-28.5 49.5q0 66 61.5 114t133 66t135.5 18q326 0 326 -260v-450q0 -86 53 -90q59 0 84 92q4 8 4 14h61 q-51 -203 -204 -203q-70 0 -114 38t-54 108q-55 -63 -136 -103t-163 -40q-90 0 -145.5 58t-55.5 150zM201 999q0 14 16 31l246 244l248 -244q14 -14 14 -24q0 -37 -33 -37h-2q-12 0 -31 14l-196 135l-195 -135q-18 -14 -30 -14h-2q-27 0 -35 30zM252 246q0 -63 39 -106.5 t104 -43.5q88 0 187 84v287q-29 -12 -95.5 -32.5t-109.5 -37t-82 -56.5t-43 -95z" />
<glyph unicode="&#xe3;" horiz-adv-x="925" d="M82 188q0 82 31.5 137.5t90 84t117 45t136.5 34t125 37.5v70q0 109 -30 162t-130 53q-51 0 -81 -20.5t-41 -51t-21.5 -60.5t-32 -50.5t-60.5 -20.5q-33 0 -61.5 18.5t-28.5 49.5q0 66 61.5 114t133 66t135.5 18q326 0 326 -260v-450q0 -86 53 -90q59 0 84 92q4 8 4 14h61 q-51 -203 -204 -203q-70 0 -114 38t-54 108q-55 -63 -136 -103t-163 -40q-90 0 -145.5 58t-55.5 150zM129 1032q109 180 223 180q49 0 145.5 -28.5t147.5 -28.5q56 0 119 59l35 -24q-104 -162 -219 -166q-51 0 -147.5 27.5t-145.5 27.5q-53 0 -119 -69zM252 246 q0 -63 39 -106.5t104 -43.5q88 0 187 84v287q-29 -12 -95.5 -32.5t-109.5 -37t-82 -56.5t-43 -95z" />
<glyph unicode="&#xe4;" horiz-adv-x="925" d="M82 188q0 82 31.5 137.5t90 84t117 45t136.5 34t125 37.5v70q0 109 -30 162t-130 53q-51 0 -81 -20.5t-41 -51t-21.5 -60.5t-32 -50.5t-60.5 -20.5q-33 0 -61.5 18.5t-28.5 49.5q0 66 61.5 114t133 66t135.5 18q326 0 326 -260v-450q0 -86 53 -90q59 0 84 92q4 8 4 14h61 q-51 -203 -204 -203q-70 0 -114 38t-54 108q-55 -63 -136 -103t-163 -40q-90 0 -145.5 58t-55.5 150zM154 1091.5q0 51.5 35.5 87t87 35.5t87 -35.5t35.5 -87t-35.5 -87t-87 -35.5t-87 35.5t-35.5 87zM252 246q0 -63 39 -106.5t104 -43.5q88 0 187 84v287 q-29 -12 -95.5 -32.5t-109.5 -37t-82 -56.5t-43 -95zM528 1091.5q0 51.5 37 87t86 35.5q51 0 87 -35.5t36 -87t-36 -87t-87 -35.5q-49 0 -86 35.5t-37 87z" />
<glyph unicode="&#xe5;" horiz-adv-x="925" d="M82 188q0 82 31.5 137.5t90 84t117 45t136.5 34t125 37.5v70q0 109 -30 162t-130 53q-51 0 -81 -20.5t-41 -51t-21.5 -60.5t-32 -50.5t-60.5 -20.5q-33 0 -61.5 18.5t-28.5 49.5q0 66 61.5 114t133 66t135.5 18q326 0 326 -260v-450q0 -86 53 -90q59 0 84 92q4 8 4 14h61 q-51 -203 -204 -203q-70 0 -114 38t-54 108q-55 -63 -136 -103t-163 -40q-90 0 -145.5 58t-55.5 150zM252 246q0 -63 39 -106.5t104 -43.5q88 0 187 84v287q-29 -12 -95.5 -32.5t-109.5 -37t-82 -56.5t-43 -95zM289 1132.5q0 71.5 52 123t122 51.5q72 0 123 -53.5t51 -127.5 q0 -70 -52.5 -119t-122 -49t-121.5 51.5t-52 123zM369 1132.5q0 -38.5 27.5 -66.5t66.5 -28t66.5 28t27.5 66.5t-27.5 66.5t-66.5 28t-66.5 -28t-27.5 -66.5z" />
<glyph unicode="&#xe6;" horiz-adv-x="1406" d="M82 199q0 160 111 219q162 84 395 112q0 47 -1 77t-10.5 72t-25.5 66.5t-48 43t-77 18.5q-61 0 -93 -32t-39 -68.5t-31.5 -68.5t-76.5 -32q-31 0 -58.5 14.5t-29.5 43.5q0 100 104.5 155t215.5 55q96 0 161.5 -24.5t122.5 -89.5q111 115 267 114q170 0 265 -114.5 t95 -288.5h-573q0 -6 -1 -15.5t-1 -13.5q0 -72 11 -134t38.5 -121.5t82 -93.5t130.5 -34q78 0 134 40t122 116l57 -33q-51 -94 -143 -149.5t-201 -55.5q-104 0 -197.5 45.5t-152.5 129.5q-51 -76 -147.5 -125.5t-188.5 -49.5q-96 0 -156.5 62.5t-60.5 159.5zM252 240 q0 -68 35 -111t100.5 -43t130 36t88.5 93q-10 25 -14 78q-4 59 -4 178q-182 -41 -246 -82q-90 -55 -90 -149zM758 530h391q0 121 -38 196t-146 75q-102 0 -151.5 -79t-55.5 -192z" />
<glyph unicode="&#xe7;" horiz-adv-x="886" d="M80 397q0 203 114.5 340t313.5 137q53 0 117.5 -16t120 -56t55.5 -95q0 -33 -23.5 -55.5t-56.5 -22.5q-39 0 -72 28q-6 76 -37.5 111t-107.5 35q-84 0 -139.5 -58.5t-75 -133t-19.5 -156.5q0 -94 24.5 -178t89.5 -151t161 -67q153 0 235 160l62 -22q-37 -106 -128 -164 t-208 -58l-27 -90q70 -14 119 -53t49 -104q0 -82 -61.5 -133.5t-145.5 -51.5q-92 0 -186 60l29 45q74 -39 127 -39q45 0 77.5 32.5t32.5 77.5q0 82 -119 121l45 135q-174 35 -270 140.5t-96 281.5z" />
<glyph unicode="&#xe8;" horiz-adv-x="929" d="M82 415.5q0 190.5 111.5 324.5t300.5 134q166 0 262 -123.5t96 -293.5h-584q0 -401 262 -402q152 0 263 156l59 -33q-127 -201 -352 -201q-188 0 -303 124t-115 314.5zM270 528h400q0 2 1 9.5t1 11.5q0 250 -189 250q-104 0 -156.5 -79t-56.5 -192zM272 1229q0 16 25 16 h252l106 -254q2 -4 2 -10v-2q0 -12 -24 -12q-8 2 -25 10l-323 233q-12 8 -13 19z" />
<glyph unicode="&#xe9;" horiz-adv-x="929" d="M82 415.5q0 190.5 111.5 324.5t300.5 134q166 0 262 -123.5t96 -293.5h-584q0 -401 262 -402q152 0 263 156l59 -33q-127 -201 -352 -201q-188 0 -303 124t-115 314.5zM270 528h400q0 2 1 9.5t1 11.5q0 250 -189 250q-104 0 -156.5 -79t-56.5 -192zM272 979v2q0 6 2 10 l107 254h252q25 0 24 -16q0 -10 -12 -19l-323 -233q-16 -8 -25 -10q-25 0 -25 12z" />
<glyph unicode="&#xea;" horiz-adv-x="929" d="M82 415.5q0 190.5 111.5 324.5t300.5 134q166 0 262 -123.5t96 -293.5h-584q0 -401 262 -402q152 0 263 156l59 -33q-127 -201 -352 -201q-188 0 -303 124t-115 314.5zM203 999q0 14 16 31l246 244l248 -244q14 -14 14 -24q0 -37 -33 -37h-2q-12 0 -30 14l-197 135 l-195 -135q-18 -14 -30 -14h-2q-27 0 -35 30zM270 528h400q0 2 1 9.5t1 11.5q0 250 -189 250q-104 0 -156.5 -79t-56.5 -192z" />
<glyph unicode="&#xeb;" horiz-adv-x="929" d="M82 415.5q0 190.5 111.5 324.5t300.5 134q166 0 262 -123.5t96 -293.5h-584q0 -401 262 -402q152 0 263 156l59 -33q-127 -201 -352 -201q-188 0 -303 124t-115 314.5zM156 1091.5q0 51.5 35.5 87t87 35.5t87 -35.5t35.5 -87t-35.5 -87t-87 -35.5t-87 35.5t-35.5 87z M270 528h400q0 2 1 9.5t1 11.5q0 250 -189 250q-104 0 -156.5 -79t-56.5 -192zM530 1091.5q0 51.5 37 87t86 35.5q51 0 87 -35.5t36 -87t-35.5 -87t-87.5 -35.5q-49 0 -86 35.5t-37 87z" />
<glyph unicode="&#xec;" horiz-adv-x="497" d="M27 0v63q78 2 107.5 42t29.5 122v353q0 80 -31 121.5t-106 43.5v62q123 16 307 57v-637q0 -82 29.5 -121.5t107.5 -42.5v-63h-444zM55 1229q0 16 25 16h252l106 -254q2 -4 2 -10v-2q0 -12 -24 -12q-8 2 -25 10l-323 233q-12 8 -13 19z" />
<glyph unicode="&#xed;" horiz-adv-x="497" d="M27 0v63q78 2 107.5 42t29.5 122v353q0 80 -31 121.5t-106 43.5v62q123 16 307 57v-637q0 -82 29.5 -121.5t107.5 -42.5v-63h-444zM55 979v2q0 6 2 10l107 254h252q25 0 24 -16q0 -10 -12 -19l-324 -233q-16 -8 -24 -10q-25 0 -25 12z" />
<glyph unicode="&#xee;" horiz-adv-x="497" d="M-14 999q0 14 16 31l246 244l248 -244q14 -14 14 -24q0 -37 -33 -37h-2q-12 0 -31 14l-196 135l-195 -135q-18 -14 -30 -14h-3q-27 0 -34 30zM27 0v63q78 2 107.5 42t29.5 122v353q0 80 -31 121.5t-106 43.5v62q123 16 307 57v-637q0 -82 29.5 -121.5t107.5 -42.5v-63 h-444z" />
<glyph unicode="&#xef;" horiz-adv-x="497" d="M-61 1089.5q0 51.5 35.5 87t87 35.5t87 -35.5t35.5 -87t-35.5 -87t-87 -35.5t-87 35.5t-35.5 87zM27 0v63q78 2 107.5 42t29.5 122v353q0 80 -31 121.5t-106 43.5v62q123 16 307 57v-637q0 -82 29.5 -121.5t107.5 -42.5v-63h-444zM313 1089.5q0 51.5 37 87t86 35.5 q51 0 87 -35.5t36 -87t-36 -87t-87 -35.5q-49 0 -86 35.5t-37 87z" />
<glyph unicode="&#xf0;" horiz-adv-x="1050" d="M82 412q0 205 122 333.5t324 128.5q92 0 187 -32q-10 109 -60.5 209t-130.5 166l-231 -152l-39 61l209 134q-123 70 -268 94l24 51q180 -6 320 -84l227 147l39 -63l-199 -123q365 -285 365 -793q0 -227 -111.5 -369.5t-333.5 -142.5q-201 0 -322.5 117t-121.5 318z M266 406q0 -94 20.5 -172t81 -137.5t157 -59.5t156.5 62.5t80.5 142.5t20.5 176q0 395 -256 395q-260 0 -260 -407z" />
<glyph unicode="&#xf1;" horiz-adv-x="1062" d="M27 0v63q78 2 107.5 42t29.5 122v353q0 80 -31 121.5t-106 43.5v62q169 24 280 57q27 -53 27 -125q150 135 315 135q250 0 250 -278v-369q0 -82 28.5 -121.5t106.5 -42.5v-63h-442v63q78 2 106.5 42t28.5 122v344q0 199 -176 199q-102 0 -217 -100v-443 q0 -82 29.5 -121.5t107.5 -42.5v-63h-444zM197 1032q109 180 223 180q49 0 145.5 -28.5t147.5 -28.5q55 0 118 59l35 -24q-104 -162 -219 -166q-49 0 -145 27.5t-148 27.5q-53 0 -118 -69z" />
<glyph unicode="&#xf2;" horiz-adv-x="1046" d="M82 414q0 207 120 333.5t326.5 126.5t321.5 -122.5t115 -329.5q0 -197 -123 -321t-320 -124q-203 0 -321.5 117t-118.5 320zM266 406q0 -152 59.5 -260.5t196.5 -108.5q96 0 157.5 62.5t81 142.5t19.5 176q0 61 -4 109t-20.5 104.5t-43 94.5t-74.5 62.5t-114 24.5 q-258 0 -258 -407zM332 1229q0 16 24 16h252l107 -254q2 -4 2 -10v-2q0 -12 -25 -12q-8 2 -24 10l-324 233q-12 8 -12 19z" />
<glyph unicode="&#xf3;" horiz-adv-x="1046" d="M82 414q0 207 120 333.5t326.5 126.5t321.5 -122.5t115 -329.5q0 -197 -123 -321t-320 -124q-203 0 -321.5 117t-118.5 320zM266 406q0 -152 59.5 -260.5t196.5 -108.5q96 0 157.5 62.5t81 142.5t19.5 176q0 61 -4 109t-20.5 104.5t-43 94.5t-74.5 62.5t-114 24.5 q-258 0 -258 -407zM332 979v2q0 6 2 10l106 254h252q25 0 25 -16q0 -10 -12 -19l-324 -233q-16 -8 -25 -10q-25 0 -24 12z" />
<glyph unicode="&#xf4;" horiz-adv-x="1046" d="M82 414q0 207 120 333.5t326.5 126.5t321.5 -122.5t115 -329.5q0 -197 -123 -321t-320 -124q-203 0 -321.5 117t-118.5 320zM262 999q0 14 17 31l245 244l248 -244q14 -14 14 -24q0 -37 -32 -37h-2q-12 0 -31 14l-197 135l-194 -135q-18 -14 -31 -14h-2q-27 0 -35 30z M266 406q0 -152 59.5 -260.5t196.5 -108.5q96 0 157.5 62.5t81 142.5t19.5 176q0 61 -4 109t-20.5 104.5t-43 94.5t-74.5 62.5t-114 24.5q-258 0 -258 -407z" />
<glyph unicode="&#xf5;" horiz-adv-x="1046" d="M82 414q0 207 120 333.5t326.5 126.5t321.5 -122.5t115 -329.5q0 -197 -123 -321t-320 -124q-203 0 -321.5 117t-118.5 320zM188 1032q109 180 224 180q49 0 145 -28.5t148 -28.5q55 0 118 59l35 -24q-104 -162 -219 -166q-49 0 -145.5 27.5t-147.5 27.5q-53 0 -119 -69z M266 406q0 -152 59.5 -260.5t196.5 -108.5q96 0 157.5 62.5t81 142.5t19.5 176q0 61 -4 109t-20.5 104.5t-43 94.5t-74.5 62.5t-114 24.5q-258 0 -258 -407z" />
<glyph unicode="&#xf6;" horiz-adv-x="1046" d="M82 414q0 207 120 333.5t326.5 126.5t321.5 -122.5t115 -329.5q0 -197 -123 -321t-320 -124q-203 0 -321.5 117t-118.5 320zM213 1091.5q0 51.5 36 87t87 35.5t87 -35.5t36 -87t-36 -87t-87 -35.5t-87 35.5t-36 87zM266 406q0 -152 59.5 -260.5t196.5 -108.5 q96 0 157.5 62.5t81 142.5t19.5 176q0 61 -4 109t-20.5 104.5t-43 94.5t-74.5 62.5t-114 24.5q-258 0 -258 -407zM588 1091.5q0 51.5 37 87t86 35.5q51 0 87 -35.5t36 -87t-36 -87t-87 -35.5q-49 0 -86 35.5t-37 87z" />
<glyph unicode="&#xf7;" d="M41 655v103h942v-103h-942zM424 334q0 37 25.5 62.5t62.5 25.5t62.5 -25.5t25.5 -62.5q0 -35 -26.5 -61.5t-61.5 -26.5t-61.5 26.5t-26.5 61.5zM424 1077q0 37 26.5 62.5t61.5 25.5q37 0 62.5 -25.5t25.5 -62.5q0 -35 -25.5 -61.5t-62.5 -26.5q-35 0 -61.5 26.5 t-26.5 61.5z" />
<glyph unicode="&#xf8;" horiz-adv-x="1052" d="M88 0l105 119q-98 109 -99 299q0 209 120 335t327 126q154 0 254 -68l106 123l60 -51l-105 -121q121 -111 121 -334q0 -199 -123 -322.5t-319 -123.5q-168 0 -285 84l-103 -117zM279 412q-1 -107 24 -189l420 510q-66 84 -186 84q-258 0 -258 -405zM338 145 q68 -102 197 -102q139 0 198.5 112.5t59.5 266.5q0 151 -31 237z" />
<glyph unicode="&#xf9;" horiz-adv-x="1062" d="M27 811v63h307v-593q0 -199 178 -199q102 0 217 100v465q0 82 -29.5 122t-107.5 42v63h307v-647q0 -162 137 -164v-63q-126 0 -280 -10q-27 68 -27 123q-150 -135 -317 -136q-102 0 -174 57.5t-74 155.5v64v393q0 82 -30 122t-107 42zM338 1229q0 16 24 16h252l107 -254 q2 -4 2 -10v-2q0 -12 -25 -12q-8 2 -24 10l-324 233q-12 8 -12 19z" />
<glyph unicode="&#xfa;" horiz-adv-x="1062" d="M27 811v63h307v-593q0 -199 178 -199q102 0 217 100v465q0 82 -29.5 122t-107.5 42v63h307v-647q0 -162 137 -164v-63q-126 0 -280 -10q-27 68 -27 123q-150 -135 -317 -136q-102 0 -174 57.5t-74 155.5v64v393q0 82 -30 122t-107 42zM338 979v2q0 6 2 10l106 254h252 q25 0 25 -16q0 -10 -12 -19l-324 -233q-16 -8 -25 -10q-25 0 -24 12z" />
<glyph unicode="&#xfb;" horiz-adv-x="1062" d="M27 811v63h307v-593q0 -199 178 -199q102 0 217 100v465q0 82 -29.5 122t-107.5 42v63h307v-647q0 -162 137 -164v-63q-126 0 -280 -10q-27 68 -27 123q-150 -135 -317 -136q-102 0 -174 57.5t-74 155.5v64v393q0 82 -30 122t-107 42zM268 999q0 14 17 31l245 244 l248 -244q14 -14 15 -24q0 -37 -33 -37h-2q-12 0 -31 14l-197 135l-194 -135q-18 -14 -31 -14h-2q-27 0 -35 30z" />
<glyph unicode="&#xfc;" horiz-adv-x="1062" d="M27 811v63h307v-593q0 -199 178 -199q102 0 217 100v465q0 82 -29.5 122t-107.5 42v63h307v-647q0 -162 137 -164v-63q-126 0 -280 -10q-27 68 -27 123q-150 -135 -317 -136q-102 0 -174 57.5t-74 155.5v64v393q0 82 -30 122t-107 42zM221 1091.5q0 51.5 36 87t87 35.5 t87 -35.5t36 -87t-36 -87t-87 -35.5t-87 35.5t-36 87zM596 1091.5q0 51.5 37 87t86 35.5q51 0 87 -35.5t36 -87t-36 -87t-87 -35.5q-49 0 -86 35.5t-37 87z" />
<glyph unicode="&#xfd;" horiz-adv-x="954" d="M-6 788v62h393v-62q-88 0 -88 -43q0 -12 8 -36l221 -480l215 480q12 29 15 45v2q0 10 -5 16t-16.5 9t-19.5 4t-22.5 2t-16.5 1h-14v62h299v-62l-21 -2q-86 -8 -119 -77l-436 -955q-2 -6 -16.5 -38.5t-20.5 -46t-21.5 -45.5t-26.5 -48t-28.5 -42t-33 -39t-35 -28.5 t-42 -21.5t-44.5 -6q-39 0 -70 20.5t-31 59.5q0 25 15 45q6 0 16 -2t14 -2q57 0 107.5 31.5t92.5 93t68.5 110.5t62.5 129t46 103l-319 682q-37 76 -127 79zM285 977v2q0 6 2 10l106 254h252q25 0 25 -16q0 -10 -13 -19l-323 -233q-16 -8 -25 -10q-25 0 -24 12z" />
<glyph unicode="&#xfe;" horiz-adv-x="1081" d="M27 -483q78 2 107.5 42t29.5 122v1456q0 80 -31 121.5t-106 44.5v61q170 25 280 57q27 -43 27 -88v-585q115 125 278 124q178 0 282.5 -128t104.5 -310q0 -188 -106.5 -322.5t-290.5 -134.5q-155 1 -268 95v-391q0 -98 39 -130t139 -36v-62h-485v64zM334 166 q100 -100 219 -107q94 0 156.5 62.5t85 144.5t22.5 176q0 137 -56 243t-181 106q-137 0 -246 -168v-457z" />
<glyph unicode="&#xff;" horiz-adv-x="954" d="M-6 788v62h393v-62q-88 0 -88 -43q0 -12 8 -36l221 -480l215 480q12 29 15 45v2q0 10 -5 16t-16.5 9t-19.5 4t-22.5 2t-16.5 1h-14v62h299v-62l-21 -2q-86 -8 -119 -77l-436 -955q-2 -6 -16.5 -38.5t-20.5 -46t-21.5 -45.5t-26.5 -48t-28.5 -42t-33 -39t-35 -28.5 t-42 -21.5t-44.5 -6q-39 0 -70 20.5t-31 59.5q0 25 15 45q6 0 16 -2t14 -2q57 0 107.5 31.5t92.5 93t68.5 110.5t62.5 129t46 103l-319 682q-37 76 -127 79zM168 1089.5q0 51.5 36 87t87 35.5t87 -35.5t36 -87t-36 -87t-87 -35.5t-87 35.5t-36 87zM543 1089.5 q0 51.5 36.5 87t86.5 35.5q51 0 86.5 -35.5t35.5 -87t-35.5 -87t-86.5 -35.5q-49 0 -86 35.5t-37 87z" />
<glyph unicode="&#x152;" horiz-adv-x="1896" d="M96 690q0 293 182.5 492.5t471.5 199.5q43 0 127 -8t124 -8h736l37 -334h-66q-47 262 -281 262h-284v-499h117q193 0 198 192h64v-465h-64l-2 25q-6 98 -50 138t-140 40h-123v-465q0 -117 58.5 -154.5t182.5 -37.5q201 0 301.5 80.5t133.5 277.5h61l-27 -426h-860 q-37 0 -109.5 -11.5t-109.5 -11.5q-313 0 -495.5 198t-182.5 515zM336 645q0 -262 104 -416q49 -74 130 -121t165 -47q100 0 151.5 41t51.5 140v18v1022q-96 29 -186 29q-125 0 -212 -62.5t-129 -169t-58.5 -210t-16.5 -224.5z" />
<glyph unicode="&#x153;" horiz-adv-x="1359" d="M0 416q0 193 111.5 324.5t302.5 131.5q188 0 299 -124q115 127 276 126q174 0 269.5 -111.5t101.5 -289.5h-580q0 -408 262 -407q147 0 258 153l60 -33q-125 -195 -334 -202q-182 0 -313 112q-135 -119 -299 -119q-186 0 -300 124t-114 315zM178 426q0 -66 8.5 -123 t31 -120.5t69.5 -101.5t116 -38q217 0 218 393q0 59 -8.5 116.5t-30 118t-66.5 97.5t-108 37q-68 0 -115 -37t-70.5 -98.5t-34 -121t-10.5 -122.5zM782 530h392q0 70 -14.5 126.5t-58.5 101.5t-114 45q-100 0 -151.5 -82t-53.5 -191z" />
<glyph unicode="&#x178;" horiz-adv-x="1357" d="M-6 1303v63h586v-63h-52q-98 0 -98 -52q0 -18 19 -59l292 -504l306 504q18 37 18 53q0 57 -188 58v63h489v-63q-86 -4 -143.5 -34t-98.5 -98l-344 -563v-381q0 -55 13.5 -89t44 -49t60.5 -19t87 -7v-63h-610v63q61 2 91 7.5t60.5 20.5t42 48t11.5 88v381l-375 584 q-39 59 -87 82.5t-124 28.5zM371 1577q0 51 35.5 87t87 36t87 -36t35.5 -87t-35.5 -87t-87 -36t-87 36t-35.5 87zM745 1577q0 51 37 87t86 36q51 0 87 -36t36 -87t-35.5 -87t-87.5 -36q-49 0 -86 36t-37 87z" />
<glyph unicode="&#x2c6;" d="M252 999q0 14 16 31l246 244l248 -244q14 -14 14 -24q0 -37 -33 -37h-2q-12 0 -30 14l-197 135l-195 -135q-18 -14 -30 -14h-2q-27 0 -35 30z" />
<glyph unicode="&#x2dc;" d="M178 1032q109 180 223 180q49 0 145.5 -28.5t147.5 -28.5q56 0 119 59l35 -24q-104 -162 -219 -166q-51 0 -147.5 27.5t-145.5 27.5q-53 0 -119 -69z" />
<glyph unicode="&#x2000;" horiz-adv-x="896" />
<glyph unicode="&#x2001;" horiz-adv-x="1792" />
<glyph unicode="&#x2002;" horiz-adv-x="896" />
<glyph unicode="&#x2003;" horiz-adv-x="1792" />
<glyph unicode="&#x2004;" horiz-adv-x="597" />
<glyph unicode="&#x2005;" horiz-adv-x="448" />
<glyph unicode="&#x2006;" horiz-adv-x="298" />
<glyph unicode="&#x2007;" horiz-adv-x="298" />
<glyph unicode="&#x2008;" horiz-adv-x="224" />
<glyph unicode="&#x2009;" horiz-adv-x="358" />
<glyph unicode="&#x200a;" horiz-adv-x="99" />
<glyph unicode="&#x2010;" horiz-adv-x="436" d="M0 393v101h436v-101h-436z" />
<glyph unicode="&#x2011;" horiz-adv-x="436" d="M0 393v101h436v-101h-436z" />
<glyph unicode="&#x2012;" horiz-adv-x="436" d="M0 393v101h436v-101h-436z" />
<glyph unicode="&#x2013;" horiz-adv-x="956" d="M25 393v103h909v-103h-909z" />
<glyph unicode="&#x2014;" horiz-adv-x="1298" d="M0 391v103h1298v-103h-1298z" />
<glyph unicode="&#x2018;" horiz-adv-x="485" d="M92 1049q0 119 77.5 217t192.5 135v-37q-162 -113 -161 -242q0 -27 16 -75q41 4 59 4q45 0 77 -34t32 -79q0 -47 -34 -80t-81 -33q-80 0 -129 70t-49 154z" />
<glyph unicode="&#x2019;" horiz-adv-x="485" d="M92 1286q0 47 34 81t81 34q80 0 129 -69.5t49 -153.5q0 -119 -77.5 -218.5t-192.5 -134.5v35q162 117 161 244q0 37 -16 76q-27 -6 -59 -6q-45 0 -77 33.5t-32 78.5z" />
<glyph unicode="&#x201a;" horiz-adv-x="485" d="M92 106q0 47 34 81t81 34q80 0 129 -69.5t49 -153.5q0 -119 -77.5 -218t-192.5 -134v35q162 117 161 243q0 37 -16 76q-27 -6 -59 -6q-45 0 -77 33.5t-32 78.5z" />
<glyph unicode="&#x201c;" horiz-adv-x="833" d="M92 1049q0 119 77.5 217t192.5 135v-37q-162 -113 -161 -242q0 -27 16 -75q41 4 59 4q45 0 77 -34t32 -79q0 -47 -34 -80t-81 -33q-80 0 -129 70t-49 154zM440 1049q0 119 78 217t193 135v-37q-162 -113 -162 -242q0 -27 16 -75q41 4 60 4q45 0 76.5 -34t31.5 -79 q0 -47 -33.5 -80t-81.5 -33q-80 0 -129 70t-49 154z" />
<glyph unicode="&#x201d;" horiz-adv-x="833" d="M92 1286q0 47 34 81t81 34q80 0 129 -69.5t49 -153.5q0 -119 -77.5 -218.5t-192.5 -134.5v35q162 117 161 244q0 37 -16 76q-27 -6 -59 -6q-45 0 -77 33.5t-32 78.5zM440 1286q0 47 34 81t81 34q80 0 129 -69.5t49 -153.5q0 -119 -76.5 -218.5t-191.5 -134.5v35 q160 119 160 244q0 33 -15 76q-31 -6 -59 -6q-45 0 -78 33.5t-33 78.5z" />
<glyph unicode="&#x201e;" horiz-adv-x="833" d="M92 106q0 47 34 81t81 34q80 0 129 -69.5t49 -153.5q0 -119 -77.5 -218t-192.5 -134v35q162 117 161 243q0 37 -16 76q-27 -6 -59 -6q-45 0 -77 33.5t-32 78.5zM440 106q0 47 34 81t81 34q80 0 129 -69.5t49 -153.5q0 -119 -76.5 -218t-191.5 -134v35q160 119 160 243 q0 33 -15 76q-31 -6 -59 -6q-45 0 -78 33.5t-33 78.5z" />
<glyph unicode="&#x2022;" horiz-adv-x="1228" d="M406 586q0 82 57 139t139 57q84 0 142.5 -57t58.5 -139t-58.5 -139.5t-142.5 -57.5q-82 0 -139 57.5t-57 139.5z" />
<glyph unicode="&#x2026;" horiz-adv-x="1456" d="M129 88q0 47 34 81t81 34t79.5 -34t32.5 -81t-32.5 -81t-79.5 -34t-81 34t-34 81zM614 88q0 47 34 81t81 34t80 -34t33 -81t-33 -81t-80 -34t-81 34t-34 81zM1100 88q0 47 33.5 81t81 34t80 -34t32.5 -81t-32.5 -81t-80 -34t-81 34t-33.5 81z" />
<glyph unicode="&#x202f;" horiz-adv-x="358" />
<glyph unicode="&#x2039;" horiz-adv-x="559" d="M77.5 444.5q0.5 16.5 22.5 34.5l265 246q6 4 18 14.5t19.5 15.5t18.5 11t21 8q37 0 37 -26q0 -23 -22 -58l-195 -246l195 -245q23 -31 22 -54v-4q0 -27 -33 -26q-12 0 -24 6t-19.5 11t-20.5 17.5t-17 14.5l-265 246q-23 18 -22.5 34.5z" />
<glyph unicode="&#x203a;" horiz-adv-x="559" d="M82 141q0 29 22 56l195 247l-195 246q-23 37 -22 51q0 33 33 33q12 0 24.5 -6t19.5 -11t20.5 -17.5t17.5 -14.5l264 -246q23 -23 22 -35q0 -16 -22 -34l-264 -246q-4 -4 -16.5 -15.5t-19.5 -17.5t-19.5 -11t-22.5 -5q-37 0 -37 26z" />
<glyph unicode="&#x205f;" horiz-adv-x="448" />
<glyph unicode="&#x2122;" horiz-adv-x="2002" d="M4 1157l23 209h796l23 -209h-53q-27 78 -60 117t-104 39h-133v-625q0 -33 6 -52.5t29.5 -26.5t36 -8t55.5 -3v-51h-396v51q43 2 55.5 3t36 8t29.5 26.5t6 52.5v625h-133q-72 0 -105.5 -39t-58.5 -117h-53zM877 547v51q80 2 103.5 31.5t23.5 113.5v465v29q0 51 -33 64.5 t-94 13.5v51h278l195 -442q14 -31 38.5 -94.5t36.5 -94.5l2 6l273 625h276v-51q-43 -2 -55 -3t-35.5 -8.5t-30 -27t-6.5 -51.5v-537v-12q0 -39 17 -55q20 -23 88 -23h22v-51h-399v51q25 0 37 2q59 2 75.5 25.5t16.5 85.5v403q0 18 1 54t1 55q-2 -6 -7 -20.5t-9 -22.5 l-277 -633h-51l-252 577q-29 66 -41 99v-451q0 -98 19.5 -133t105.5 -41v-51h-319z" />
<glyph unicode="&#x25fc;" horiz-adv-x="849" d="M0 0v850h850v-850h-850z" />
<glyph unicode="&#xfb01;" horiz-adv-x="1042" d="M29 791v61h143q0 76 2 124t11.5 118.5t32 115.5t57 89t94 65.5t139.5 21.5q72 0 130 -36.5t58 -104.5q0 -33 -23.5 -58.5t-56.5 -25.5q-43 0 -61 24.5t-17 53.5t-12.5 53.5t-48.5 24.5q-135 0 -135 -215v-250h184v-61h-184v-564q0 -98 39 -129.5t139 -36.5v-61h-485v63 q78 2 107.5 42t29.5 122v564h-143zM571 0v63q78 2 108 42t30 122v353q0 80 -31 121.5t-107 43.5v62q134 18 308 57v-637q0 -82 29.5 -121.5t107.5 -42.5v-63h-445zM688 1108q0 43 33 72.5t76 29.5t72.5 -30.5t29.5 -71.5t-29.5 -71.5t-72.5 -30.5t-76 29.5t-33 72.5z" />
<glyph unicode="&#xfb02;" horiz-adv-x="1042" d="M29 791v61h143q0 96 3 153.5t21.5 139.5t51.5 128t99.5 79.5t160.5 33.5q47 0 96 -16q119 16 275 51v-1194q0 -82 29.5 -121.5t107.5 -42.5v-63h-445v63q78 2 108 42t30 122v912q0 55 -15 94q-14 -72 -78 -72q-43 0 -61 24.5t-17 53.5t-12.5 53.5t-48.5 24.5 q-135 0 -135 -215v-250h184v-61h-184v-564q0 -98 39 -129.5t139 -36.5v-61h-485v63q78 2 107.5 42t29.5 122v564h-143z" />
</font>
</defs>
</svg>
